<?xml version="1.0" encoding="utf-8" ?>
<!DOCTYPE svg PUBLIC "-//W3C//DTD SVG 1.1//EN" "http://www.w3.org/Graphics/SVG/1.1/DTD/svg11.dtd">
<svg height="255" version="1.1" width="460" xmlns="http://www.w3.org/2000/svg">
<rect fill="#87ceeb" height="67" stroke="#87ceeb" stroke-width="1" width="192" x="126" y="14"/>
<rect fill="none" height="67" stroke="#000000" stroke-width="1" width="192" x="126" y="14"/>
<text font-family="Dialog" font-size="12" x="196" y="46">
Seq&lt;T&gt;</text>
<text font-family="Dialog" font-size="12" x="174" y="28">
&lt;&lt;interface&gt;&gt;</text>
<rect fill="#000000" height="1" stroke="#000000" stroke-width="1" width="192" x="126" y="56"/>
<text font-family="Dialog" font-size="12" x="130" y="70">
get(index : Integer) : T</text>
<rect fill="#87ceeb" height="67" stroke="#87ceeb" stroke-width="1" width="192" x="254" y="126"/>
<rect fill="none" height="67" stroke="#000000" stroke-width="1" width="192" x="254" y="126"/>
<text font-family="Dialog" font-size="12" x="323" y="158">
ISeq&lt;T&gt;</text>
<text font-family="Dialog" font-size="12" x="302" y="140">
&lt;&lt;interface&gt;&gt;</text>
<rect fill="#000000" height="1" stroke="#000000" stroke-width="1" width="192" x="254" y="168"/>
<text font-family="Dialog" font-size="12" x="258" y="182">
copy() : MSeq&lt;T&gt;</text>
<rect fill="#87ceeb" height="115" stroke="#87ceeb" stroke-width="1" width="210" x="14" y="126"/>
<rect fill="none" height="115" stroke="#000000" stroke-width="1" width="210" x="14" y="126"/>
<text font-family="Dialog" font-size="12" x="88" y="158">
MSeq&lt;T&gt;</text>
<text font-family="Dialog" font-size="12" x="71" y="140">
&lt;&lt;interface&gt;&gt;</text>
<rect fill="#000000" height="1" stroke="#000000" stroke-width="1" width="210" x="14" y="168"/>
<text font-family="Dialog" font-size="12" x="18" y="182">
set(index : Integer,value : T)</text>
<text font-family="Dialog" font-size="12" x="18" y="198">
swap(i : Integer,j : Integer)</text>
<text font-family="Dialog" font-size="12" x="18" y="214">
toISeq(j : Integer) : ISeq&lt;T&gt;</text>
<text font-family="Dialog" font-size="12" x="18" y="230">
ofLength(s : Integer) : MSeq&lt;T&gt;</text>
<polyline fill="none" points="158,126 158,80" stroke="#000000" stroke-width="1"/>
<polygon fill="#ffffff" points="158,80 165,92 151,92" stroke="#ffffff" stroke-width="1"/>
<polygon fill="none" points="158,80 165,92 151,92" stroke="#000000" stroke-width="1"/>
<polyline fill="none" points="286,126 286,80" stroke="#000000" stroke-width="1"/>
<polygon fill="#ffffff" points="286,80 293,92 279,92" stroke="#ffffff" stroke-width="1"/>
<polygon fill="none" points="286,80 293,92 279,92" stroke="#000000" stroke-width="1"/>
</svg>
