<?xml version="1.0" encoding="utf-8" ?>
<!DOCTYPE svg PUBLIC "-//W3C//DTD SVG 1.1//EN" "http://www.w3.org/Graphics/SVG/1.1/DTD/svg11.dtd">
<svg height="284" version="1.1" width="396" xmlns="http://www.w3.org/2000/svg">
<polygon fill="#87ceeb" points="14,190 140,190 140,213 189,213 189,269 14,269 14,190" stroke="#87ceeb" stroke-width="1"/>
<rect fill="none" height="23" stroke="#000000" stroke-width="1" width="126" x="14" y="190"/>
<text font-family="Dialog" font-size="12" x="19" y="203">
org.jenetics.util</text>
<rect fill="none" height="56" stroke="#000000" stroke-width="1" width="175" x="14" y="213"/>
<polygon fill="#87ceeb" points="206,102 332,102 332,125 381,125 381,269 206,269 206,102" stroke="#87ceeb" stroke-width="1"/>
<rect fill="none" height="23" stroke="#000000" stroke-width="1" width="126" x="206" y="102"/>
<text font-family="Dialog" font-size="12" x="211" y="115">
org.jenetics.stat</text>
<rect fill="none" height="144" stroke="#000000" stroke-width="1" width="175" x="206" y="125"/>
<polygon fill="#87ceeb" points="14,102 140,102 140,125 189,125 189,181 14,181 14,102" stroke="#87ceeb" stroke-width="1"/>
<rect fill="none" height="23" stroke="#000000" stroke-width="1" width="126" x="14" y="102"/>
<text font-family="Dialog" font-size="12" x="19" y="115">
org.jenetics</text>
<rect fill="none" height="56" stroke="#000000" stroke-width="1" width="175" x="14" y="125"/>
<polygon fill="#87ceeb" points="14,14 332,14 332,37 381,37 381,93 14,93 14,14" stroke="#87ceeb" stroke-width="1"/>
<rect fill="none" height="23" stroke="#000000" stroke-width="1" width="318" x="14" y="14"/>
<text font-family="Dialog" font-size="12" x="19" y="27">
org.jenetics.engine</text>
<rect fill="none" height="56" stroke="#000000" stroke-width="1" width="367" x="14" y="37"/>
</svg>
