<?xml version="1.0" encoding="UTF-8" standalone="no"?>
<!-- Created with Inkscape (http://www.inkscape.org/) -->

<svg
   xmlns:dc="http://purl.org/dc/elements/1.1/"
   xmlns:cc="http://creativecommons.org/ns#"
   xmlns:rdf="http://www.w3.org/1999/02/22-rdf-syntax-ns#"
   xmlns:svg="http://www.w3.org/2000/svg"
   xmlns="http://www.w3.org/2000/svg"
   xmlns:sodipodi="http://sodipodi.sourceforge.net/DTD/sodipodi-0.dtd"
   xmlns:inkscape="http://www.inkscape.org/namespaces/inkscape"
   width="701.38574"
   height="830.00037"
   id="svg3493"
   version="1.1"
   inkscape:version="0.91 r13725"
   sodipodi:docname="title.svg"
   inkscape:export-filename="/home/fwilhelm/Workspace/Development/Projects/Jenetics/doc/documentation/graphic/title.png"
   inkscape:export-xdpi="90"
   inkscape:export-ydpi="90">
  <defs
     id="defs3495" />
  <sodipodi:namedview
     id="base"
     pagecolor="#ffffff"
     bordercolor="#666666"
     borderopacity="1.0"
     inkscape:pageopacity="0.0"
     inkscape:pageshadow="2"
     inkscape:zoom="0.75575672"
     inkscape:cx="170.84376"
     inkscape:cy="425.02539"
     inkscape:document-units="px"
     inkscape:current-layer="layer1"
     showgrid="false"
     inkscape:window-width="1385"
     inkscape:window-height="841"
     inkscape:window-x="11"
     inkscape:window-y="0"
     inkscape:window-maximized="0"
     showguides="true"
     inkscape:guide-bbox="true"
     fit-margin-top="0"
     fit-margin-left="0"
     fit-margin-right="0"
     fit-margin-bottom="0" />
  <metadata
     id="metadata3498">
    <rdf:RDF>
      <cc:Work
         rdf:about="">
        <dc:format>image/svg+xml</dc:format>
        <dc:type
           rdf:resource="http://purl.org/dc/dcmitype/StillImage" />
        <dc:title />
      </cc:Work>
    </rdf:RDF>
  </metadata>
  <g
     inkscape:label="Layer 1"
     inkscape:groupmode="layer"
     id="layer1"
     transform="translate(-28.144287,-118.67782)">
    <g
       style="opacity:0.70999995;stroke-opacity:0"
       transform="matrix(0,-3.163143,7.0563538,0,-501.24451,1283.0154)"
       id="imagebot_3"
       label="DNA"
       inkscape:export-xdpi="250"
       inkscape:export-ydpi="250">
      <path
         style="opacity:0.8;fill:#001496;fill-opacity:1;fill-rule:nonzero;stroke:#000000;stroke-width:3.95050669;stroke-linecap:round;stroke-linejoin:bevel;stroke-miterlimit:4;stroke-dasharray:14.36547916, 14.36547916;stroke-dashoffset:0;marker-start:none;marker-mid:none;marker-end:none"
         inkscape:connector-curvature="0"
         d="m 285.22384,167.74016 c 1.86497,3.46314 3.71591,5.35509 5.58086,5.35808 3.09465,0.005 6.2068,-5.21228 9.30145,-14.16309 3.09463,-8.95079 6.18059,-21.5329 9.27523,-34.19621 3.09464,-12.66333 6.18059,-25.238381 9.27524,-34.196214 1.22675,-3.550978 2.44142,-6.523725 3.66816,-8.805012 -1.86494,-3.465565 -3.71591,-5.39522 -5.58086,-5.392217 -3.09463,0.0049 -6.2068,5.239389 -9.30143,14.197229 -3.09464,8.957833 -6.1806,21.532884 -9.27524,34.196214 -3.09464,12.66331 -6.1806,25.2454 -9.27523,34.19621 -1.22676,3.54819 -2.44143,6.52214 -3.66818,8.80501 z"
         id="imagebot_164"
         stroke-miterlimit="4" />
      <path
         style="opacity:0.8;fill:#001496;fill-opacity:1;fill-rule:nonzero;stroke:#000000;stroke-width:3.95050669;stroke-linecap:round;stroke-linejoin:bevel;stroke-miterlimit:4;stroke-dasharray:14.36547916, 14.36547916;stroke-dashoffset:0;marker-start:none;marker-mid:none;marker-end:none"
         inkscape:connector-curvature="0"
         d="m 210.32253,167.74016 c 1.86494,3.46314 3.71592,5.35509 5.58086,5.35808 3.09464,0.005 6.20682,-5.21228 9.30144,-14.16309 3.09464,-8.95079 6.18059,-21.5329 9.27524,-34.19621 3.09461,-12.66333 6.18061,-25.238381 9.27523,-34.196214 1.22675,-3.550978 2.44143,-6.523725 3.66817,-8.805012 -1.86494,-3.465565 -3.71592,-5.39522 -5.58086,-5.392217 -3.09462,0.0049 -6.20682,5.239389 -9.30144,14.197229 -3.09462,8.957833 -6.18062,21.532884 -9.27523,34.196214 -3.09463,12.66331 -6.18059,25.2454 -9.27524,34.19621 -1.22674,3.54819 -2.44142,6.52214 -3.66817,8.80501 z"
         id="imagebot_162"
         stroke-miterlimit="4" />
      <path
         style="opacity:0.8;fill:#001496;fill-opacity:1;fill-rule:nonzero;stroke:#000000;stroke-width:3.95050669;stroke-linecap:round;stroke-linejoin:bevel;stroke-miterlimit:4;stroke-dasharray:14.36547916, 14.36547916;stroke-dashoffset:0;marker-start:none;marker-mid:none;marker-end:none"
         inkscape:connector-curvature="0"
         id="imagebot_160"
         d="m 135.3693,167.74016 c 1.86496,3.46314 3.71591,5.35509 5.58087,5.35808 3.09462,0.005 6.2068,-5.21228 9.30144,-14.16309 3.09464,-8.95079 6.18058,-21.5329 9.27523,-34.19621 3.09463,-12.66333 6.1806,-25.238381 9.27524,-34.196214 1.22674,-3.550978 2.44142,-6.523725 3.66817,-8.805012 -1.86495,-3.465565 -3.71591,-5.39522 -5.58086,-5.392217 -3.09464,0.0049 -6.20681,5.239389 -9.30144,14.197229 -3.09463,8.957833 -6.18061,21.532884 -9.27523,34.196214 -3.09464,12.66331 -6.1806,25.2454 -9.27525,34.19621 -1.22674,3.54819 -2.44143,6.52214 -3.66817,8.80501 z"
         stroke-miterlimit="4" />
      <path
         style="opacity:0.8;fill:#001496;fill-opacity:1;fill-rule:nonzero;stroke:#000000;stroke-width:3.95050669;stroke-linecap:round;stroke-linejoin:bevel;stroke-miterlimit:4;stroke-dasharray:14.36547916, 14.36547916;stroke-dashoffset:0;marker-start:none;marker-mid:none;marker-end:none"
         inkscape:connector-curvature="0"
         d="m 108.64799,167.74016 c 1.86496,3.46314 3.71592,5.35509 5.58087,5.35808 3.09463,0.005 6.2068,-5.21228 9.30144,-14.16309 3.09463,-8.95079 6.18059,-21.5329 9.27523,-34.19621 3.09463,-12.66333 6.1806,-25.238381 9.27524,-34.196214 1.22675,-3.550978 2.44143,-6.523725 3.66817,-8.805012 -1.86495,-3.465565 -3.71591,-5.39522 -5.58087,-5.392217 -3.09462,0.0049 -6.20681,5.239389 -9.30143,14.197229 -3.09464,8.957833 -6.18061,21.532884 -9.27524,34.196214 -3.09463,12.66331 -6.1806,25.2454 -9.27523,34.19621 -1.22674,3.54819 -2.44143,6.52214 -3.66818,8.80501 z"
         id="imagebot_150"
         stroke-miterlimit="4" />
      <path
         style="opacity:0.8;fill:#001496;fill-opacity:1;fill-rule:nonzero;stroke:#000000;stroke-width:3.95050669;stroke-linecap:round;stroke-linejoin:bevel;stroke-miterlimit:4;stroke-dasharray:14.36547916, 14.36547916;stroke-dashoffset:0;marker-start:none;marker-mid:none;marker-end:none"
         inkscape:connector-curvature="0"
         d="m 183.60119,167.74016 c 1.86494,3.46314 3.71592,5.35509 5.58086,5.35808 3.09462,0.005 6.20682,-5.21228 9.30143,-14.16309 3.09465,-8.95079 6.1806,-21.5329 9.27524,-34.19621 3.09462,-12.66333 6.18062,-25.238381 9.27524,-34.196214 1.22674,-3.550978 2.44142,-6.523725 3.66817,-8.805012 -1.86494,-3.465565 -3.71592,-5.39522 -5.58086,-5.392217 -3.09463,0.0049 -6.20682,5.239389 -9.30144,14.197229 -3.09462,8.957833 -6.18062,21.532884 -9.27524,34.196214 -3.09462,12.66331 -6.18058,25.2454 -9.27524,34.19621 -1.22674,3.54819 -2.44142,6.52214 -3.66816,8.80501 z"
         id="imagebot_148"
         stroke-miterlimit="4" />
      <rect
         style="opacity:0.8;fill:#aad4ff;fill-rule:evenodd;stroke:#000000;stroke-width:3.95050669;stroke-linecap:round;stroke-linejoin:bevel;stroke-miterlimit:4;stroke-dasharray:14.36547916, 14.36547916;stroke-dashoffset:0"
         id="imagebot_146"
         width="4.0052252"
         height="67.196228"
         x="220.06204"
         y="80.545616"
         ry="1.2285634"
         rx="2.3957038"
         stroke-miterlimit="4" />
      <rect
         style="opacity:0.8;fill:#aad4ff;fill-rule:evenodd;stroke:#000000;stroke-width:3.95050669;stroke-linecap:round;stroke-linejoin:bevel;stroke-miterlimit:4;stroke-dasharray:14.36547916, 14.36547916;stroke-dashoffset:0"
         rx="2.6292558"
         ry="1.3483336"
         y="91.086838"
         x="228.30885"
         height="30.155209"
         width="4.395678"
         id="imagebot_144"
         stroke-miterlimit="4" />
      <rect
         style="opacity:0.8;fill:#aad4ff;fill-rule:evenodd;stroke:#000000;stroke-width:3.95050669;stroke-linecap:round;stroke-linejoin:bevel;stroke-miterlimit:4;stroke-dasharray:14.36547916, 14.36547916;stroke-dashoffset:0"
         id="imagebot_142"
         width="4.3004732"
         height="37.541122"
         x="236.94611"
         y="87.393883"
         ry="1.319128"
         rx="2.5723045"
         stroke-miterlimit="4" />
      <rect
         style="opacity:0.8;fill:#aad4ff;fill-rule:evenodd;stroke:#000000;stroke-width:3.95050669;stroke-linecap:round;stroke-linejoin:bevel;stroke-miterlimit:4;stroke-dasharray:14.36547916, 14.36547916;stroke-dashoffset:0"
         rx="2.3560545"
         ry="1.2082305"
         y="81.058151"
         x="245.48816"
         height="75.419754"
         width="3.9389381"
         id="imagebot_140"
         stroke-miterlimit="4" />
      <rect
         style="opacity:0.8;fill:#aad4ff;fill-rule:evenodd;stroke:#000000;stroke-width:3.95050669;stroke-linecap:round;stroke-linejoin:bevel;stroke-miterlimit:4;stroke-dasharray:14.36547916, 14.36547916;stroke-dashoffset:0"
         id="imagebot_138"
         width="3.9281812"
         height="76.813858"
         x="253.66867"
         y="91.974174"
         ry="1.2049336"
         rx="2.3496256"
         stroke-miterlimit="4" />
      <path
         style="opacity:1;fill:#0069c2;fill-opacity:1;fill-rule:nonzero;stroke:#000000;stroke-width:3.95050669;stroke-linecap:round;stroke-linejoin:bevel;stroke-miterlimit:4;stroke-dasharray:14.36547916, 14.36547915999999958;stroke-dashoffset:0;marker-start:none;marker-mid:none;marker-end:none"
         inkscape:connector-curvature="0"
         d="m 220.70213,81.737714 c 1.28622,2.340173 2.46469,5.248311 3.69437,8.805012 3.09463,8.950803 6.18062,21.532894 9.27524,34.196214 3.09462,12.66331 6.20682,25.23837 9.30144,34.19621 3.09464,8.95782 6.18059,14.15813 9.27524,14.16309 0.93443,0.001 9.34332,-0.0319 11.22203,-0.0319 -1.85856,0 -4.55408,-3.52308 -5.61497,-5.36032 -1.04439,-1.80865 -2.44355,-5.22607 -3.66817,-8.77088 -3.09464,-8.95782 -6.20682,-21.5329 -9.30144,-34.19621 -3.09464,-12.66333 -6.1806,-25.245411 -9.27524,-34.196213 -3.09462,-8.950807 -6.1806,-14.202199 -9.27523,-14.197229 -0.95846,0.0015 -8.41105,-0.0055 -11.17885,0.01664 2.77698,-0.02709 4.25278,3.023431 5.54558,5.375574 z"
         id="imagebot_136"
         stroke-miterlimit="4" />
      <path
         style="opacity:0.8;fill:#001496;fill-opacity:1;fill-rule:nonzero;stroke:#000000;stroke-width:3.95050669;stroke-linecap:round;stroke-linejoin:bevel;stroke-miterlimit:4;stroke-dasharray:14.36547916, 14.36547916;stroke-dashoffset:0;marker-start:none;marker-mid:none;marker-end:none"
         inkscape:connector-curvature="0"
         d="m 258.50252,167.74016 c 1.86497,3.46314 3.71592,5.35509 5.58087,5.35808 3.09464,0.005 6.2068,-5.21228 9.30144,-14.16309 3.09463,-8.95079 6.1806,-21.5329 9.27523,-34.19621 3.09465,-12.66333 6.1806,-25.238381 9.27524,-34.196214 1.22674,-3.550978 2.44142,-6.523725 3.66817,-8.805012 -1.86495,-3.465565 -3.71592,-5.39522 -5.58086,-5.392217 -3.09464,0.0049 -6.2068,5.239389 -9.30144,14.197229 -3.09464,8.957833 -6.18059,21.532884 -9.27524,34.196214 -3.09463,12.66331 -6.1806,25.2454 -9.27523,34.19621 -1.22676,3.54819 -2.44143,6.52214 -3.66818,8.80501 z"
         id="imagebot_134"
         stroke-miterlimit="4" />
      <rect
         style="opacity:0.8;fill:#aad4ff;fill-rule:evenodd;stroke:#000000;stroke-width:3.95050669;stroke-linecap:round;stroke-linejoin:bevel;stroke-miterlimit:4;stroke-dasharray:14.36547916, 14.36547916;stroke-dashoffset:0"
         id="imagebot_132"
         width="4.0052252"
         height="67.196228"
         x="295.41077"
         y="80.545616"
         ry="1.2285634"
         rx="2.3957038"
         stroke-miterlimit="4" />
      <rect
         style="opacity:0.8;fill:#aad4ff;fill-rule:evenodd;stroke:#000000;stroke-width:3.95050669;stroke-linecap:round;stroke-linejoin:bevel;stroke-miterlimit:4;stroke-dasharray:14.36547916, 14.36547916;stroke-dashoffset:0"
         rx="2.6292558"
         ry="1.3483336"
         y="91.086838"
         x="303.65753"
         height="30.155209"
         width="4.395678"
         id="imagebot_130"
         stroke-miterlimit="4" />
      <rect
         style="opacity:0.8;fill:#aad4ff;fill-rule:evenodd;stroke:#000000;stroke-width:3.95050669;stroke-linecap:round;stroke-linejoin:bevel;stroke-miterlimit:4;stroke-dasharray:14.36547916, 14.36547916;stroke-dashoffset:0"
         rx="2.3560545"
         ry="1.2082305"
         y="81.058151"
         x="320.83688"
         height="75.419754"
         width="3.9389381"
         id="imagebot_128"
         stroke-miterlimit="4" />
      <rect
         style="opacity:0.8;fill:#aad4ff;fill-rule:evenodd;stroke:#000000;stroke-width:3.95050669;stroke-linecap:round;stroke-linejoin:bevel;stroke-miterlimit:4;stroke-dasharray:14.36547916, 14.36547916;stroke-dashoffset:0"
         id="imagebot_126"
         width="4.3004732"
         height="37.541122"
         x="312.29477"
         y="87.393883"
         ry="1.319128"
         rx="2.5723045"
         stroke-miterlimit="4" />
      <rect
         style="opacity:0.8;fill:#aad4ff;fill-rule:evenodd;stroke:#000000;stroke-width:3.95050669;stroke-linecap:round;stroke-linejoin:bevel;stroke-miterlimit:4;stroke-dasharray:14.36547916, 14.36547916;stroke-dashoffset:0"
         id="imagebot_124"
         width="3.9281812"
         height="76.813858"
         x="329.01733"
         y="91.974174"
         ry="1.2049336"
         rx="2.3496256"
         stroke-miterlimit="4" />
      <path
         style="opacity:1;fill:#0069c2;fill-opacity:1;fill-rule:nonzero;stroke:#000000;stroke-width:3.95050669;stroke-linecap:round;stroke-linejoin:bevel;stroke-miterlimit:4;stroke-dasharray:14.36547916, 14.36547915999999958;stroke-dashoffset:0;marker-start:none;marker-mid:none;marker-end:none"
         inkscape:connector-curvature="0"
         d="m 295.65529,81.737714 c 1.28623,2.340173 2.46468,5.248311 3.69437,8.805012 3.09463,8.950803 6.1806,21.532894 9.27524,34.196214 3.09463,12.66331 6.20679,25.23837 9.30144,34.19621 3.09462,8.95782 6.18059,14.15813 9.27523,14.16309 0.93444,0.001 9.34332,-0.0319 11.22204,-0.0319 -1.85855,0 -4.55408,-3.52308 -5.61498,-5.36032 -1.04438,-1.80865 -2.44354,-5.22607 -3.66816,-8.77088 -3.09465,-8.95782 -6.20681,-21.5329 -9.30145,-34.19621 -3.09463,-12.66333 -6.18057,-25.245411 -9.27523,-34.196213 -3.09464,-8.950807 -6.18061,-14.202199 -9.27524,-14.197229 -0.95844,0.0015 -8.41103,-0.0055 -11.17884,0.01664 2.77697,-0.02709 4.25279,3.023431 5.54558,5.375574 z"
         id="imagebot_122"
         stroke-miterlimit="4" />
      <rect
         style="opacity:0.8;fill:#aad4ff;fill-rule:evenodd;stroke:#000000;stroke-width:3.95050669;stroke-linecap:round;stroke-linejoin:bevel;stroke-miterlimit:4;stroke-dasharray:14.36547916, 14.36547916;stroke-dashoffset:0"
         id="imagebot_76"
         width="4.4169579"
         height="28.636017"
         x="120.57577"
         y="130.965"
         ry="1.3548611"
         rx="2.6419849"
         stroke-miterlimit="4" />
      <rect
         style="opacity:0.8;fill:#aad4ff;fill-rule:evenodd;stroke:#000000;stroke-width:3.95050669;stroke-linecap:round;stroke-linejoin:bevel;stroke-miterlimit:4;stroke-dasharray:14.36547916, 14.36547916;stroke-dashoffset:0"
         id="imagebot_74"
         width="4.0655928"
         height="60.234322"
         x="128.28937"
         y="107.26038"
         ry="1.2470806"
         rx="2.4318123"
         stroke-miterlimit="4" />
      <rect
         style="opacity:0.8;fill:#aad4ff;fill-rule:evenodd;stroke:#000000;stroke-width:3.95050669;stroke-linecap:round;stroke-linejoin:bevel;stroke-miterlimit:4;stroke-dasharray:14.36547916, 14.36547916;stroke-dashoffset:0"
         rx="2.3560545"
         ry="1.2082305"
         y="81.058151"
         x="170.13948"
         height="75.419754"
         width="3.9389381"
         id="imagebot_70"
         stroke-miterlimit="4" />
      <rect
         style="opacity:0.8;fill:#aad4ff;fill-rule:evenodd;stroke:#000000;stroke-width:3.95050669;stroke-linecap:round;stroke-linejoin:bevel;stroke-miterlimit:4;stroke-dasharray:14.36547916, 14.36547916;stroke-dashoffset:0"
         id="imagebot_68"
         width="3.9281812"
         height="76.813858"
         x="178.32002"
         y="91.974174"
         ry="1.2049336"
         rx="2.3496256"
         stroke-miterlimit="4" />
      <rect
         style="opacity:0.8;fill:#aad4ff;fill-rule:evenodd;stroke:#000000;stroke-width:3.95050669;stroke-linecap:round;stroke-linejoin:bevel;stroke-miterlimit:4;stroke-dasharray:14.36547916, 14.36547916;stroke-dashoffset:0"
         rx="2.5409911"
         ry="1.3030694"
         y="122.74422"
         x="186.48978"
         height="42.02784"
         width="4.2481294"
         id="imagebot_66"
         stroke-miterlimit="4" />
      <rect
         style="opacity:0.8;fill:#aad4ff;fill-rule:evenodd;stroke:#000000;stroke-width:3.95050669;stroke-linecap:round;stroke-linejoin:bevel;stroke-miterlimit:4;stroke-dasharray:14.36547916, 14.36547916;stroke-dashoffset:0"
         id="imagebot_64"
         width="4.4169579"
         height="28.636017"
         x="194.97949"
         y="130.965"
         ry="1.3548611"
         rx="2.6419849"
         stroke-miterlimit="4" />
      <rect
         style="opacity:0.8;fill:#aad4ff;fill-rule:evenodd;stroke:#000000;stroke-width:3.95050669;stroke-linecap:round;stroke-linejoin:bevel;stroke-miterlimit:4;stroke-dasharray:14.36547916, 14.36547916;stroke-dashoffset:0"
         id="imagebot_62"
         width="4.0655928"
         height="60.234322"
         x="203.63805"
         y="107.26038"
         ry="1.2470806"
         rx="2.4318123"
         stroke-miterlimit="4" />
      <rect
         style="opacity:0.8;fill:#aad4ff;fill-rule:evenodd;stroke:#000000;stroke-width:3.95050669;stroke-linecap:round;stroke-linejoin:bevel;stroke-miterlimit:4;stroke-dasharray:14.36547916, 14.36547916;stroke-dashoffset:0"
         rx="2.3179498"
         ry="1.1886898"
         y="83.446495"
         x="211.94525"
         height="83.924248"
         width="3.8752334"
         id="imagebot_60"
         stroke-miterlimit="4" />
      <path
         style="opacity:0.99999999;fill:#0069c2;fill-opacity:1;fill-rule:nonzero;stroke:#000000;stroke-width:3.95050669;stroke-linecap:round;stroke-linejoin:bevel;stroke-miterlimit:4;stroke-dasharray:14.36547916, 14.36547915999999958;stroke-dashoffset:0;marker-start:none;marker-mid:none;marker-end:none"
         inkscape:connector-curvature="0"
         id="imagebot_58"
         d="m 172.47025,81.737714 c 1.28621,2.340173 2.46469,5.248311 3.69438,8.805012 3.09462,8.950803 6.1806,21.532894 9.27523,34.196214 3.09463,12.66331 6.2068,25.23837 9.30144,34.19621 3.09464,8.95782 6.1806,14.15813 9.27524,14.16309 0.93442,0.001 9.34332,-0.0319 11.22202,-0.0319 -1.85855,0 -4.55408,-3.52308 -5.61496,-5.36032 -1.04439,-1.80865 -2.44356,-5.22607 -3.66817,-8.77088 -3.09464,-8.95782 -6.20682,-21.5329 -9.30144,-34.19621 -3.09465,-12.66333 -6.1806,-25.245411 -9.27523,-34.196213 -3.09464,-8.950807 -6.1806,-14.202199 -9.27524,-14.197229 -0.95846,0.0015 -8.41105,-0.0055 -11.17885,0.01664 2.77698,-0.02709 4.25278,3.023431 5.54558,5.375574 z"
         stroke-miterlimit="4" />
      <rect
         style="opacity:0.8;fill:#aad4ff;fill-rule:evenodd;stroke:#000000;stroke-width:3.95050669;stroke-linecap:round;stroke-linejoin:bevel;stroke-miterlimit:4;stroke-dasharray:14.36547916, 14.36547916;stroke-dashoffset:0"
         rx="2.5409911"
         ry="1.3030694"
         y="122.74422"
         x="261.83844"
         height="42.02784"
         width="4.2481294"
         id="imagebot_56"
         stroke-miterlimit="4" />
      <rect
         style="opacity:0.8;fill:#aad4ff;fill-rule:evenodd;stroke:#000000;stroke-width:3.95050669;stroke-linecap:round;stroke-linejoin:bevel;stroke-miterlimit:4;stroke-dasharray:14.36547916, 14.36547916;stroke-dashoffset:0"
         id="imagebot_54"
         width="4.4169579"
         height="28.636017"
         x="270.32816"
         y="130.965"
         ry="1.3548611"
         rx="2.6419849"
         stroke-miterlimit="4" />
      <rect
         style="opacity:0.8;fill:#aad4ff;fill-rule:evenodd;stroke:#000000;stroke-width:3.95050669;stroke-linecap:round;stroke-linejoin:bevel;stroke-miterlimit:4;stroke-dasharray:14.36547916, 14.36547916;stroke-dashoffset:0"
         id="imagebot_52"
         width="4.0655928"
         height="60.234322"
         x="278.98669"
         y="107.26038"
         ry="1.2470806"
         rx="2.4318123"
         stroke-miterlimit="4" />
      <rect
         style="opacity:0.8;fill:#aad4ff;fill-rule:evenodd;stroke:#000000;stroke-width:3.95050669;stroke-linecap:round;stroke-linejoin:bevel;stroke-miterlimit:4;stroke-dasharray:14.36547916, 14.36547916;stroke-dashoffset:0"
         rx="2.3179498"
         ry="1.1886898"
         y="83.446495"
         x="287.29388"
         height="83.924248"
         width="3.8752334"
         id="imagebot_50"
         stroke-miterlimit="4" />
      <path
         style="opacity:0.99999999;fill:#0069c2;fill-opacity:1;fill-rule:nonzero;stroke:#000000;stroke-width:3.95050669;stroke-linecap:round;stroke-linejoin:bevel;stroke-miterlimit:4;stroke-dasharray:14.36547916, 14.36547915999999958;stroke-dashoffset:0;marker-start:none;marker-mid:none;marker-end:none"
         inkscape:connector-curvature="0"
         d="m 247.42347,81.737714 c 1.28622,2.340173 2.46469,5.248311 3.69437,8.805012 3.09465,8.950803 6.1806,21.532894 9.27524,34.196214 3.09464,12.66331 6.2068,25.23837 9.30144,34.19621 3.09464,8.95782 6.1806,14.15813 9.27524,14.16309 0.93444,0.001 9.34332,-0.0319 11.22203,-0.0319 -1.85858,0 -4.55408,-3.52308 -5.61497,-5.36032 -1.04439,-1.80865 -2.44355,-5.22607 -3.66817,-8.77088 -3.09464,-8.95782 -6.20683,-21.5329 -9.30144,-34.19621 -3.09464,-12.66333 -6.1806,-25.245411 -9.27524,-34.196213 -3.09463,-8.950807 -6.18059,-14.202199 -9.27523,-14.197229 -0.95845,0.0015 -8.41104,-0.0055 -11.17885,0.01664 2.77698,-0.02709 4.25277,3.023431 5.54558,5.375574 z"
         id="imagebot_48"
         stroke-miterlimit="4" />
      <rect
         style="opacity:0.8;fill:#aad4ff;fill-rule:evenodd;stroke:#000000;stroke-width:3.95050669;stroke-linecap:round;stroke-linejoin:bevel;stroke-miterlimit:4;stroke-dasharray:14.36547916, 14.36547916;stroke-dashoffset:0"
         rx="2.5409911"
         ry="1.3030694"
         y="122.74422"
         x="337.1871"
         height="42.02784"
         width="4.2481294"
         id="imagebot_46"
         stroke-miterlimit="4" />
      <path
         style="opacity:1;fill:#0069c2;fill-opacity:1;fill-rule:nonzero;stroke:#000000;stroke-width:3.95050669;stroke-linecap:round;stroke-linejoin:bevel;stroke-miterlimit:4;stroke-dasharray:14.36547916, 14.36547915999999958;stroke-dashoffset:0;marker-start:none;marker-mid:none;marker-end:none"
         inkscape:connector-curvature="0"
         d="m 322.37661,81.737714 c 1.28623,2.340173 2.46467,5.248311 3.69437,8.805012 3.09463,8.950803 6.18059,21.532894 9.27524,34.196214 3.09462,12.66331 6.2068,25.23837 9.30143,34.19621 3.09463,8.95782 6.1806,14.15813 9.27524,14.16309 0.93444,0.001 9.34332,-0.0319 11.22203,-0.0319 -1.85855,0 -4.55407,-3.52308 -5.61497,-5.36032 -1.04439,-1.80865 -2.44354,-5.22607 -3.66817,-8.77088 -3.09464,-8.95782 -6.20681,-21.5329 -9.30144,-34.19621 -3.09464,-12.66333 -6.18061,-25.245411 -9.27523,-34.196213 -3.09464,-8.950807 -6.18061,-14.202199 -9.27524,-14.197229 -0.95845,0.0015 -8.41103,-0.0055 -11.17885,0.01664 2.77697,-0.02709 4.25279,3.023431 5.54559,5.375574 z"
         id="imagebot_38"
         stroke-miterlimit="4" />
      <rect
         style="opacity:0.8;fill:#aad4ff;fill-rule:evenodd;stroke:#000000;stroke-width:3.95050669;stroke-linecap:round;stroke-linejoin:bevel;stroke-miterlimit:4;stroke-dasharray:14.36547916, 14.36547916;stroke-dashoffset:0"
         rx="2.3179498"
         ry="1.1886898"
         y="83.446495"
         x="136.59654"
         height="83.924248"
         width="3.8752334"
         id="imagebot_12"
         stroke-miterlimit="4" />
      <rect
         style="opacity:0.8;fill:#aad4ff;fill-rule:evenodd;stroke:#000000;stroke-width:3.95050669;stroke-linecap:round;stroke-linejoin:bevel;stroke-miterlimit:4;stroke-dasharray:14.36547916, 14.36547916;stroke-dashoffset:0"
         id="imagebot_10"
         width="4.0052252"
         height="67.196228"
         x="144.71336"
         y="80.545616"
         ry="1.2285634"
         rx="2.3957038"
         stroke-miterlimit="4" />
      <rect
         style="opacity:0.8;fill:#aad4ff;fill-rule:evenodd;stroke:#000000;stroke-width:3.95050669;stroke-linecap:round;stroke-linejoin:bevel;stroke-miterlimit:4;stroke-dasharray:14.36547916, 14.36547916;stroke-dashoffset:0"
         rx="2.6292558"
         ry="1.3483336"
         y="91.086838"
         x="152.96017"
         height="30.155209"
         width="4.395678"
         id="imagebot_8"
         stroke-miterlimit="4" />
      <rect
         style="opacity:0.8;fill:#aad4ff;fill-rule:evenodd;stroke:#000000;stroke-width:3.95050669;stroke-linecap:round;stroke-linejoin:bevel;stroke-miterlimit:4;stroke-dasharray:14.36547916, 14.36547916;stroke-dashoffset:0"
         id="imagebot_6"
         width="4.3004732"
         height="37.541122"
         x="161.59743"
         y="87.393883"
         ry="1.319128"
         rx="2.5723045"
         stroke-miterlimit="4" />
      <path
         style="opacity:0.99999999;fill:#0069c2;fill-opacity:1;fill-rule:nonzero;stroke:#000000;stroke-width:3.95050669;stroke-linecap:round;stroke-linejoin:bevel;stroke-miterlimit:4;stroke-dasharray:14.36547916, 14.36547915999999958;stroke-dashoffset:0;marker-start:none;marker-mid:none;marker-end:none"
         inkscape:connector-curvature="0"
         d="m 145.74894,81.737714 c 1.28623,2.340173 2.46468,5.248311 3.69437,8.805012 3.09464,8.950803 6.18061,21.532894 9.27524,34.196214 3.09464,12.66331 6.2068,25.23837 9.30144,34.19621 3.09463,8.95782 6.18061,14.15813 9.27523,14.16309 0.93443,0.001 9.34332,-0.0319 11.22204,-0.0319 -1.85856,0 -4.55408,-3.52308 -5.61497,-5.36032 -1.04438,-1.80865 -2.44356,-5.22607 -3.66818,-8.77088 -3.09463,-8.95782 -6.20681,-21.5329 -9.30143,-34.19621 -3.09464,-12.66333 -6.18059,-25.245411 -9.27524,-34.196213 -3.09463,-8.950807 -6.1806,-14.202199 -9.27524,-14.197229 -0.95846,0.0015 -8.41104,-0.0055 -11.17884,0.01664 2.77697,-0.02709 4.25279,3.023431 5.54558,5.375574 z"
         id="imagebot_4"
         stroke-miterlimit="4" />
    </g>
  </g>
</svg>
