<?xml version="1.0" encoding="UTF-8" standalone="no"?>
<!DOCTYPE svg PUBLIC "-//W3C//DTD SVG 1.1//EN"
 "http://www.w3.org/Graphics/SVG/1.1/DTD/svg11.dtd">
<!-- Generated by graphviz version 2.38.0 (20140413.2041)
 -->
<!-- Title: T Pages: 1 -->
<svg width="422pt" height="548pt"
 viewBox="0.00 0.00 422.00 548.00" xmlns="http://www.w3.org/2000/svg" xmlns:xlink="http://www.w3.org/1999/xlink">
<g id="graph0" class="graph" transform="scale(1 1) rotate(0) translate(4 544)">
<title>T</title>
<polygon fill="white" stroke="none" points="-4,4 -4,-544 418,-544 418,4 -4,4"/>
<!-- node_1915503092 -->
<g id="node1" class="node"><title>node_1915503092</title>
<ellipse fill="none" stroke="black" cx="279" cy="-522" rx="27" ry="18"/>
<text text-anchor="middle" x="279" y="-518.3" font-family="Times,serif" font-size="14.00">sub</text>
</g>
<!-- node_1535128843 -->
<g id="node2" class="node"><title>node_1535128843</title>
<ellipse fill="none" stroke="black" cx="243" cy="-450" rx="27" ry="18"/>
<text text-anchor="middle" x="243" y="-446.3" font-family="Times,serif" font-size="14.00">add</text>
</g>
<!-- node_1915503092&#45;&gt;node_1535128843 -->
<g id="edge1" class="edge"><title>node_1915503092&#45;&gt;node_1535128843</title>
<path fill="none" stroke="black" d="M270.65,-504.765C266.288,-496.283 260.853,-485.714 255.959,-476.197"/>
<polygon fill="black" stroke="black" points="258.99,-474.439 251.304,-467.147 252.765,-477.641 258.99,-474.439"/>
</g>
<!-- node_1567581361 -->
<g id="node3" class="node"><title>node_1567581361</title>
<ellipse fill="none" stroke="black" cx="315" cy="-450" rx="27" ry="18"/>
<text text-anchor="middle" x="315" y="-446.3" font-family="Times,serif" font-size="14.00">mul</text>
</g>
<!-- node_1915503092&#45;&gt;node_1567581361 -->
<g id="edge2" class="edge"><title>node_1915503092&#45;&gt;node_1567581361</title>
<path fill="none" stroke="black" d="M287.35,-504.765C291.712,-496.283 297.147,-485.714 302.041,-476.197"/>
<polygon fill="black" stroke="black" points="305.235,-477.641 306.696,-467.147 299.01,-474.439 305.235,-477.641"/>
</g>
<!-- node_849460928 -->
<g id="node4" class="node"><title>node_849460928</title>
<ellipse fill="none" stroke="black" cx="171" cy="-378" rx="27" ry="18"/>
<text text-anchor="middle" x="171" y="-374.3" font-family="Times,serif" font-size="14.00">x</text>
</g>
<!-- node_1535128843&#45;&gt;node_849460928 -->
<g id="edge3" class="edge"><title>node_1535128843&#45;&gt;node_849460928</title>
<path fill="none" stroke="black" d="M228.43,-434.834C218.25,-424.938 204.476,-411.546 192.969,-400.359"/>
<polygon fill="black" stroke="black" points="195.405,-397.846 185.796,-393.385 190.526,-402.865 195.405,-397.846"/>
</g>
<!-- node_580024961 -->
<g id="node5" class="node"><title>node_580024961</title>
<ellipse fill="none" stroke="black" cx="243" cy="-378" rx="27" ry="18"/>
<text text-anchor="middle" x="243" y="-374.3" font-family="Times,serif" font-size="14.00">mul</text>
</g>
<!-- node_1535128843&#45;&gt;node_580024961 -->
<g id="edge4" class="edge"><title>node_1535128843&#45;&gt;node_580024961</title>
<path fill="none" stroke="black" d="M243,-431.697C243,-423.983 243,-414.712 243,-406.112"/>
<polygon fill="black" stroke="black" points="246.5,-406.104 243,-396.104 239.5,-406.104 246.5,-406.104"/>
</g>
<!-- node_2027961269 -->
<g id="node6" class="node"><title>node_2027961269</title>
<ellipse fill="none" stroke="black" cx="315" cy="-378" rx="27" ry="18"/>
<text text-anchor="middle" x="315" y="-374.3" font-family="Times,serif" font-size="14.00">add</text>
</g>
<!-- node_1567581361&#45;&gt;node_2027961269 -->
<g id="edge5" class="edge"><title>node_1567581361&#45;&gt;node_2027961269</title>
<path fill="none" stroke="black" d="M315,-431.697C315,-423.983 315,-414.712 315,-406.112"/>
<polygon fill="black" stroke="black" points="318.5,-406.104 315,-396.104 311.5,-406.104 318.5,-406.104"/>
</g>
<!-- node_1586270964 -->
<g id="node7" class="node"><title>node_1586270964</title>
<ellipse fill="none" stroke="black" cx="387" cy="-378" rx="27" ry="18"/>
<text text-anchor="middle" x="387" y="-374.3" font-family="Times,serif" font-size="14.00">x</text>
</g>
<!-- node_1567581361&#45;&gt;node_1586270964 -->
<g id="edge6" class="edge"><title>node_1567581361&#45;&gt;node_1586270964</title>
<path fill="none" stroke="black" d="M329.57,-434.834C339.75,-424.938 353.524,-411.546 365.031,-400.359"/>
<polygon fill="black" stroke="black" points="367.474,-402.865 372.204,-393.385 362.595,-397.846 367.474,-402.865"/>
</g>
<!-- node_1642360923 -->
<g id="node8" class="node"><title>node_1642360923</title>
<ellipse fill="none" stroke="black" cx="171" cy="-306" rx="27" ry="18"/>
<text text-anchor="middle" x="171" y="-302.3" font-family="Times,serif" font-size="14.00">mul</text>
</g>
<!-- node_580024961&#45;&gt;node_1642360923 -->
<g id="edge7" class="edge"><title>node_580024961&#45;&gt;node_1642360923</title>
<path fill="none" stroke="black" d="M228.43,-362.834C218.25,-352.938 204.476,-339.546 192.969,-328.359"/>
<polygon fill="black" stroke="black" points="195.405,-325.846 185.796,-321.385 190.526,-330.865 195.405,-325.846"/>
</g>
<!-- node_1343441044 -->
<g id="node9" class="node"><title>node_1343441044</title>
<ellipse fill="none" stroke="black" cx="243" cy="-306" rx="27" ry="18"/>
<text text-anchor="middle" x="243" y="-302.3" font-family="Times,serif" font-size="14.00">x</text>
</g>
<!-- node_580024961&#45;&gt;node_1343441044 -->
<g id="edge8" class="edge"><title>node_580024961&#45;&gt;node_1343441044</title>
<path fill="none" stroke="black" d="M243,-359.697C243,-351.983 243,-342.712 243,-334.112"/>
<polygon fill="black" stroke="black" points="246.5,-334.104 243,-324.104 239.5,-334.104 246.5,-334.104"/>
</g>
<!-- node_693632176 -->
<g id="node10" class="node"><title>node_693632176</title>
<ellipse fill="none" stroke="black" cx="315" cy="-306" rx="27" ry="18"/>
<text text-anchor="middle" x="315" y="-302.3" font-family="Times,serif" font-size="14.00">add</text>
</g>
<!-- node_2027961269&#45;&gt;node_693632176 -->
<g id="edge9" class="edge"><title>node_2027961269&#45;&gt;node_693632176</title>
<path fill="none" stroke="black" d="M315,-359.697C315,-351.983 315,-342.712 315,-334.112"/>
<polygon fill="black" stroke="black" points="318.5,-334.104 315,-324.104 311.5,-334.104 318.5,-334.104"/>
</g>
<!-- node_326549596 -->
<g id="node11" class="node"><title>node_326549596</title>
<ellipse fill="none" stroke="black" cx="387" cy="-306" rx="27" ry="18"/>
<text text-anchor="middle" x="387" y="-302.3" font-family="Times,serif" font-size="14.00">x</text>
</g>
<!-- node_2027961269&#45;&gt;node_326549596 -->
<g id="edge10" class="edge"><title>node_2027961269&#45;&gt;node_326549596</title>
<path fill="none" stroke="black" d="M329.57,-362.834C339.75,-352.938 353.524,-339.546 365.031,-328.359"/>
<polygon fill="black" stroke="black" points="367.474,-330.865 372.204,-321.385 362.595,-325.846 367.474,-330.865"/>
</g>
<!-- node_1364335809 -->
<g id="node12" class="node"><title>node_1364335809</title>
<ellipse fill="none" stroke="black" cx="135" cy="-234" rx="27" ry="18"/>
<text text-anchor="middle" x="135" y="-230.3" font-family="Times,serif" font-size="14.00">add</text>
</g>
<!-- node_1642360923&#45;&gt;node_1364335809 -->
<g id="edge11" class="edge"><title>node_1642360923&#45;&gt;node_1364335809</title>
<path fill="none" stroke="black" d="M162.65,-288.765C158.288,-280.283 152.853,-269.714 147.959,-260.197"/>
<polygon fill="black" stroke="black" points="150.99,-258.439 143.304,-251.147 144.765,-261.641 150.99,-258.439"/>
</g>
<!-- node_458209687 -->
<g id="node13" class="node"><title>node_458209687</title>
<ellipse fill="none" stroke="black" cx="207" cy="-234" rx="27" ry="18"/>
<text text-anchor="middle" x="207" y="-230.3" font-family="Times,serif" font-size="14.00">x</text>
</g>
<!-- node_1642360923&#45;&gt;node_458209687 -->
<g id="edge12" class="edge"><title>node_1642360923&#45;&gt;node_458209687</title>
<path fill="none" stroke="black" d="M179.35,-288.765C183.712,-280.283 189.147,-269.714 194.041,-260.197"/>
<polygon fill="black" stroke="black" points="197.235,-261.641 198.696,-251.147 191.01,-258.439 197.235,-261.641"/>
</g>
<!-- node_233530418 -->
<g id="node14" class="node"><title>node_233530418</title>
<ellipse fill="none" stroke="black" cx="297" cy="-234" rx="27" ry="18"/>
<text text-anchor="middle" x="297" y="-230.3" font-family="Times,serif" font-size="14.00">x</text>
</g>
<!-- node_693632176&#45;&gt;node_233530418 -->
<g id="edge13" class="edge"><title>node_693632176&#45;&gt;node_233530418</title>
<path fill="none" stroke="black" d="M310.643,-288.055C308.609,-280.145 306.139,-270.54 303.863,-261.688"/>
<polygon fill="black" stroke="black" points="307.197,-260.602 301.317,-251.789 300.418,-262.346 307.197,-260.602"/>
</g>
<!-- node_683287027 -->
<g id="node15" class="node"><title>node_683287027</title>
<ellipse fill="none" stroke="black" cx="369" cy="-234" rx="27" ry="18"/>
<text text-anchor="middle" x="369" y="-230.3" font-family="Times,serif" font-size="14.00">x</text>
</g>
<!-- node_693632176&#45;&gt;node_683287027 -->
<g id="edge14" class="edge"><title>node_693632176&#45;&gt;node_683287027</title>
<path fill="none" stroke="black" d="M326.984,-289.465C333.976,-280.402 342.936,-268.786 350.785,-258.612"/>
<polygon fill="black" stroke="black" points="353.712,-260.548 357.049,-250.492 348.17,-256.272 353.712,-260.548"/>
</g>
<!-- node_1766822961 -->
<g id="node16" class="node"><title>node_1766822961</title>
<ellipse fill="none" stroke="black" cx="99" cy="-162" rx="27" ry="18"/>
<text text-anchor="middle" x="99" y="-158.3" font-family="Times,serif" font-size="14.00">add</text>
</g>
<!-- node_1364335809&#45;&gt;node_1766822961 -->
<g id="edge15" class="edge"><title>node_1364335809&#45;&gt;node_1766822961</title>
<path fill="none" stroke="black" d="M126.65,-216.765C122.288,-208.283 116.853,-197.714 111.959,-188.197"/>
<polygon fill="black" stroke="black" points="114.99,-186.439 107.304,-179.147 108.765,-189.641 114.99,-186.439"/>
</g>
<!-- node_254413710 -->
<g id="node17" class="node"><title>node_254413710</title>
<ellipse fill="none" stroke="black" cx="171" cy="-162" rx="27" ry="18"/>
<text text-anchor="middle" x="171" y="-158.3" font-family="Times,serif" font-size="14.00">x</text>
</g>
<!-- node_1364335809&#45;&gt;node_254413710 -->
<g id="edge16" class="edge"><title>node_1364335809&#45;&gt;node_254413710</title>
<path fill="none" stroke="black" d="M143.35,-216.765C147.712,-208.283 153.147,-197.714 158.041,-188.197"/>
<polygon fill="black" stroke="black" points="161.235,-189.641 162.696,-179.147 155.01,-186.439 161.235,-189.641"/>
</g>
<!-- node_1496724653 -->
<g id="node18" class="node"><title>node_1496724653</title>
<ellipse fill="none" stroke="black" cx="63" cy="-90" rx="27" ry="18"/>
<text text-anchor="middle" x="63" y="-86.3" font-family="Times,serif" font-size="14.00">add</text>
</g>
<!-- node_1766822961&#45;&gt;node_1496724653 -->
<g id="edge17" class="edge"><title>node_1766822961&#45;&gt;node_1496724653</title>
<path fill="none" stroke="black" d="M90.6504,-144.765C86.2885,-136.283 80.8531,-125.714 75.9587,-116.197"/>
<polygon fill="black" stroke="black" points="78.9904,-114.439 71.3043,-107.147 72.7654,-117.641 78.9904,-114.439"/>
</g>
<!-- node_553264065 -->
<g id="node19" class="node"><title>node_553264065</title>
<ellipse fill="none" stroke="black" cx="135" cy="-90" rx="27" ry="18"/>
<text text-anchor="middle" x="135" y="-86.3" font-family="Times,serif" font-size="14.00">x</text>
</g>
<!-- node_1766822961&#45;&gt;node_553264065 -->
<g id="edge18" class="edge"><title>node_1766822961&#45;&gt;node_553264065</title>
<path fill="none" stroke="black" d="M107.35,-144.765C111.712,-136.283 117.147,-125.714 122.041,-116.197"/>
<polygon fill="black" stroke="black" points="125.235,-117.641 126.696,-107.147 119.01,-114.439 125.235,-117.641"/>
</g>
<!-- node_897697267 -->
<g id="node20" class="node"><title>node_897697267</title>
<ellipse fill="none" stroke="black" cx="27" cy="-18" rx="27" ry="18"/>
<text text-anchor="middle" x="27" y="-14.3" font-family="Times,serif" font-size="14.00">x</text>
</g>
<!-- node_1496724653&#45;&gt;node_897697267 -->
<g id="edge19" class="edge"><title>node_1496724653&#45;&gt;node_897697267</title>
<path fill="none" stroke="black" d="M54.6504,-72.7646C50.2885,-64.2831 44.8531,-53.7144 39.9587,-44.1974"/>
<polygon fill="black" stroke="black" points="42.9904,-42.4395 35.3043,-35.1473 36.7654,-45.6409 42.9904,-42.4395"/>
</g>
<!-- node_1789447862 -->
<g id="node21" class="node"><title>node_1789447862</title>
<ellipse fill="none" stroke="black" cx="99" cy="-18" rx="27" ry="18"/>
<text text-anchor="middle" x="99" y="-14.3" font-family="Times,serif" font-size="14.00">x</text>
</g>
<!-- node_1496724653&#45;&gt;node_1789447862 -->
<g id="edge20" class="edge"><title>node_1496724653&#45;&gt;node_1789447862</title>
<path fill="none" stroke="black" d="M71.3496,-72.7646C75.7115,-64.2831 81.1469,-53.7144 86.0413,-44.1974"/>
<polygon fill="black" stroke="black" points="89.2346,-45.6409 90.6957,-35.1473 83.0096,-42.4395 89.2346,-45.6409"/>
</g>
</g>
</svg>
