<?xml version="1.0" standalone="no"?>
<?xml-stylesheet href="light.css" type="text/css"?>
<!DOCTYPE svg PUBLIC "-//W3C//DTD SVG 1.1//EN" "http://www.w3.org/Graphics/SVG/1.1/DTD/svg11.dtd">
<svg xmlns="http://www.w3.org/2000/svg" class="railroad-diagram" width="758" height="134" viewBox="0 0 758 134"><g transform="translate(.5 .5)"><path d="M 20 69 v 20 m 0 -10 h 20.5"></path><g><path d="M40 79h0"></path><path d="M718 79h0"></path><path d="M40 79h20"></path><g><path d="M60 79h0"></path><path d="M698 79h0"></path><g class="terminal"><path d="M60 79h0"></path><path d="M162 79h0"></path><rect x="60" y="68" width="102" height="22" rx="0" ry="0"></rect><text x="111" y="83">NodeValue</text></g><path d="M162 79h10"></path><g><path d="M172 79h0"></path><path d="M698 79h0"></path><path d="M172 79a10 10 0 0 0 10 -10v-39a10 10 0 0 1 10 -10"></path><g><path d="M192 20h486"></path></g><path d="M678 20a10 10 0 0 1 10 10v39a10 10 0 0 0 10 10"></path><path d="M172 79h20"></path><g><path d="M192 79h0"></path><path d="M678 79h0"></path><path d="M192 79h20"></path><g><path d="M212 79h0"></path><path d="M658 79h0"></path><g class="terminal"><path d="M212 79h0"></path><path d="M266 79h0"></path><rect x="212" y="68" width="54" height="22" rx="0" ry="0"></rect><text x="239" y="83">'('</text></g><path d="M266 79h10"></path><path d="M276 79h10"></path><g class="non-terminal"><path d="M286 79h0"></path><path d="M348 79h0"></path><rect x="286" y="68" width="62" height="22" rx="8" ry="8"></rect><text x="317" y="83">tree</text></g><path d="M348 79h10"></path><g><path d="M358 79h0"></path><path d="M594 79h0"></path><path d="M358 79a10 10 0 0 0 10 -10v-15a10 10 0 0 1 10 -10"></path><g><path d="M378 44h196"></path></g><path d="M574 44a10 10 0 0 1 10 10v15a10 10 0 0 0 10 10"></path><path d="M358 79h20"></path><g><path d="M378 79h0"></path><path d="M574 79h0"></path><path d="M378 79h10"></path><g><path d="M388 79h0"></path><path d="M564 79h0"></path><path d="M388 79h20"></path><g><path d="M408 79h0"></path><path d="M544 79h0"></path><g class="terminal"><path d="M408 79h0"></path><path d="M462 79h0"></path><rect x="408" y="68" width="54" height="22" rx="0" ry="0"></rect><text x="435" y="83">','</text></g><path d="M462 79h10"></path><path d="M472 79h10"></path><g class="non-terminal"><path d="M482 79h0"></path><path d="M544 79h0"></path><rect x="482" y="68" width="62" height="22" rx="8" ry="8"></rect><text x="513" y="83">tree</text></g></g><path d="M544 79h20"></path></g><path d="M564 79h10"></path><path d="M388 79a10 10 0 0 0 -10 10v15a10 10 0 0 0 10 10"></path><g><path d="M388 114h176"></path></g><path d="M564 114a10 10 0 0 0 10 -10v-15a10 10 0 0 0 -10 -10"></path></g><path d="M574 79h20"></path></g><path d="M594 79h10"></path><g class="terminal"><path d="M604 79h0"></path><path d="M658 79h0"></path><rect x="604" y="68" width="54" height="22" rx="0" ry="0"></rect><text x="631" y="83">')'</text></g></g><path d="M658 79h20"></path></g><path d="M678 79h20"></path></g></g><path d="M698 79h20"></path></g><path d="M 718 79 h 20 m 0 -10 v 20"></path></g></svg>