<?xml version="1.0" encoding="UTF-8" standalone="no"?>
<!-- Created with Inkscape (http://www.inkscape.org/) -->
<svg
   xmlns:dc="http://purl.org/dc/elements/1.1/"
   xmlns:cc="http://web.resource.org/cc/"
   xmlns:rdf="http://www.w3.org/1999/02/22-rdf-syntax-ns#"
   xmlns:svg="http://www.w3.org/2000/svg"
   xmlns="http://www.w3.org/2000/svg"
   xmlns:sodipodi="http://sodipodi.sourceforge.net/DTD/sodipodi-0.dtd"
   xmlns:inkscape="http://www.inkscape.org/namespaces/inkscape"
   width="148.00854"
   height="154.29466"
   id="svg2168"
   sodipodi:version="0.32"
   inkscape:version="0.45.1"
   version="1.0"
   sodipodi:docbase="D:\Eigene Dateien"
   sodipodi:docname="aldus_leaf_unicode2766.svg"
   inkscape:output_extension="org.inkscape.output.svg.inkscape">
  <defs
     id="defs2170" />
  <sodipodi:namedview
     id="base"
     pagecolor="#ffffff"
     bordercolor="#666666"
     borderopacity="1.0"
     inkscape:pageopacity="0.0"
     inkscape:pageshadow="2"
     inkscape:zoom="4.8375"
     inkscape:cx="77.5"
     inkscape:cy="80"
     inkscape:document-units="px"
     inkscape:current-layer="layer1"
     width="155px"
     height="160px"
     inkscape:window-width="1280"
     inkscape:window-height="975"
     inkscape:window-x="1356"
     inkscape:window-y="-4" />
  <metadata
     id="metadata2173">
    <rdf:RDF>
      <cc:Work
         rdf:about="">
        <dc:format>image/svg+xml</dc:format>
        <dc:type
           rdf:resource="http://purl.org/dc/dcmitype/StillImage" />
      </cc:Work>
    </rdf:RDF>
  </metadata>
  <g
     inkscape:label="Ebene 1"
     inkscape:groupmode="layer"
     id="layer1"
     transform="translate(-305.99573,-472.35771)">
    <path
       id="path2219"
       d="M 394.61873,504.98633 L 395.04152,503.68509 L 395.43178,502.48144 L 395.72448,501.37539 L 395.95214,500.33439 L 396.11475,499.39099 L 396.24484,498.48013 L 396.34241,497.60178 L 396.37493,496.75598 L 396.34241,495.97524 L 396.30989,495.19449 L 396.24484,494.41374 L 396.11475,493.66553 L 395.98466,492.91732 L 395.82205,492.20164 L 395.65944,491.48595 L 395.43178,490.8028 L 395.17161,490.11965 L 394.91143,489.43649 L 394.58621,488.78587 L 394.26098,488.13526 L 393.90324,487.51717 L 393.51298,486.89908 L 393.09018,486.28099 L 392.63487,485.69543 L 392.14704,485.1424 L 391.69173,484.62191 L 391.17137,484.13394 L 390.68354,483.67851 L 390.16319,483.2556 L 389.64283,482.86523 L 389.12248,482.50739 L 388.5696,482.21461 L 388.01672,481.95436 L 387.46384,481.69411 L 386.87844,481.49892 L 386.29305,481.33627 L 385.70764,481.20615 L 385.12225,481.10856 L 384.50432,481.07602 L 383.8864,481.04349 L 383.10587,481.07602 L 382.35786,481.17361 L 382.00011,481.23868 L 381.67489,481.30374 L 381.31715,481.40133 L 380.99192,481.49892 L 380.69923,481.62905 L 380.37401,481.75918 L 380.0813,481.92183 L 379.7886,482.08449 L 379.52842,482.27967 L 379.26825,482.47486 L 379.00808,482.67005 L 378.7479,482.89776 L 378.52024,483.12548 L 378.29259,483.38572 L 378.09745,483.64598 L 377.90232,483.90622 L 377.73971,484.19901 L 377.5771,484.49178 L 377.41448,484.78456 L 377.31692,485.07734 L 377.18683,485.40265 L 377.08927,485.72796 L 376.9917,486.0858 L 376.92665,486.44364 L 376.86161,487.15933 L 376.82909,487.94007 L 376.82909,488.42803 L 376.86161,488.91601 L 376.92665,489.37144 L 377.02422,489.8594 L 377.1543,490.34737 L 377.2844,490.83533 L 377.44701,491.3233 L 377.64214,491.77874 L 377.86979,492.2667 L 378.09745,492.7872 L 378.39015,493.3077 L 378.68285,493.82819 L 379.00808,494.34868 L 379.36582,494.90171 L 379.75608,495.45474 L 380.17887,496.04029 L 380.89436,496.62586 L 381.67489,497.21141 L 382.45542,497.79697 L 383.23596,498.38253 L 384.08153,498.93556 L 384.92712,499.48859 L 385.80521,500.07414 L 386.71583,500.62717 L 387.62645,501.1802 L 388.5696,501.73323 L 389.54526,502.28625 L 390.52093,502.83928 L 391.52912,503.39231 L 392.53731,503.91281 L 393.57802,504.46583 L 394.61873,504.98633 z M 383.8864,541.45361 L 383.04083,536.08599 L 383.91893,534.13413 L 384.73198,532.24733 L 385.51251,530.45812 L 386.26052,528.73397 L 386.94349,527.10743 L 387.59393,525.57847 L 388.21186,524.11458 L 388.79725,522.71573 L 389.35013,521.38196 L 389.87049,520.08073 L 390.39085,518.77948 L 390.9112,517.51078 L 391.39903,516.24207 L 391.88686,515.00589 L 392.37469,513.76971 L 392.83,512.53353 L 391.72425,511.94797 L 390.55345,511.32988 L 389.38266,510.67926 L 388.11429,509.99611 L 386.84593,509.28042 L 385.51251,508.53221 L 384.14658,507.75147 L 382.74813,506.93819 L 381.28463,506.09239 L 379.7886,505.21405 L 378.22754,504.33571 L 376.66647,503.39231 L 375.04036,502.41638 L 373.34921,501.40791 L 371.65806,500.36693 L 369.90186,499.2934 L 367.07243,497.60178 L 364.34056,495.97524 L 361.73878,494.47881 L 359.23458,493.07997 L 356.82793,491.81126 L 354.51886,490.64014 L 352.33987,489.59916 L 350.25845,488.65575 L 348.27459,487.80995 L 346.3883,487.09426 L 345.47769,486.76895 L 344.59958,486.47617 L 343.75401,486.21593 L 342.94095,485.98821 L 342.1279,485.76049 L 341.37989,485.59784 L 340.63187,485.43518 L 339.91638,485.30506 L 339.2009,485.20747 L 338.55046,485.1424 L 337.90002,485.10987 L 337.28209,485.07734 L 336.27391,485.10987 L 335.26571,485.17494 L 334.25753,485.27253 L 333.28186,485.43518 L 332.33871,485.63037 L 331.39557,485.85809 L 330.48495,486.11833 L 329.60685,486.44364 L 328.72875,486.80148 L 327.85065,487.19186 L 327.03759,487.61476 L 326.19202,488.10272 L 325.41149,488.62322 L 324.63096,489.20878 L 323.85042,489.79434 L 323.13493,490.44496 L 322.41945,491.12811 L 321.73648,491.81126 L 321.11855,492.52694 L 320.56568,493.24263 L 320.0128,493.95832 L 319.52497,494.70652 L 319.10218,495.45474 L 318.71191,496.23548 L 318.35417,497.01623 L 318.06147,497.8295 L 317.80129,498.64278 L 317.60616,499.45605 L 317.44355,500.30186 L 317.34598,501.1802 L 317.24842,502.02601 L 317.24842,502.93687 L 317.24842,503.68509 L 317.31346,504.4333 L 317.44355,505.18151 L 317.60616,505.92973 L 317.80129,506.67794 L 318.02895,507.42616 L 318.32164,508.17437 L 318.6794,508.92259 L 319.03713,509.70332 L 319.49244,510.45154 L 319.94775,511.23228 L 320.46811,512.01303 L 321.02099,512.76124 L 321.63891,513.54199 L 322.28935,514.32273 L 322.97231,515.10348 L 322.67962,516.11194 L 322.3544,517.05534 L 321.99666,517.93367 L 321.57386,518.74696 L 321.15108,519.49516 L 320.69577,520.21085 L 320.43559,520.50363 L 320.17541,520.82894 L 319.91523,521.12172 L 319.65505,521.38196 L 319.36236,521.64222 L 319.10218,521.86993 L 318.80948,522.06512 L 318.51678,522.29284 L 318.19156,522.45549 L 317.86633,522.65068 L 317.54111,522.7808 L 317.21589,522.94346 L 316.85815,523.04105 L 316.50041,523.17117 L 316.14266,523.23623 L 315.78492,523.33382 L 315.39464,523.36636 L 315.00438,523.43142 L 314.61412,523.43142 L 314.22385,523.46395 L 313.76854,523.43142 L 313.31323,523.39889 L 312.89044,523.36636 L 312.50018,523.26877 L 312.07738,523.17117 L 311.68712,523.04105 L 311.29685,522.91092 L 310.9391,522.74827 L 310.54884,522.55308 L 310.22362,522.3579 L 309.86588,522.09765 L 309.54065,521.86993 L 309.21543,521.57715 L 308.89021,521.28437 L 308.59751,520.95907 L 308.3048,520.63375 L 308.01211,520.27591 L 307.75194,519.88554 L 307.52428,519.49516 L 307.29662,519.1048 L 307.06896,518.68189 L 306.87383,518.25899 L 306.71122,517.80355 L 306.58114,517.34812 L 306.41852,516.86015 L 306.32096,516.40472 L 306.22339,515.88423 L 306.12582,515.36373 L 306.06078,514.84323 L 306.02826,514.32273 L 305.99573,513.76971 L 305.99573,513.18415 L 305.99573,512.59859 L 306.02826,512.01303 L 306.0933,511.39494 L 306.15834,510.77685 L 306.25591,510.15877 L 306.386,509.54067 L 306.51609,508.89005 L 306.6787,508.2069 L 306.87383,507.55628 L 307.10149,506.87313 L 307.32914,506.15744 L 307.5568,505.44177 L 308.1422,504.0104 L 308.79264,502.51397 L 309.54065,500.98501 L 310.32119,499.48859 L 311.16676,497.99216 L 312.1099,496.49573 L 313.08557,495.03183 L 314.12628,493.56794 L 315.23204,492.10405 L 316.43536,490.67268 L 317.15085,489.82687 L 317.86633,489.0136 L 318.58182,488.23285 L 319.32984,487.4521 L 320.07785,486.73642 L 320.82586,486.02074 L 321.57386,485.33759 L 322.3544,484.68697 L 323.13493,484.03634 L 323.91547,483.45079 L 324.696,482.86523 L 325.50905,482.31221 L 326.3221,481.79171 L 327.13516,481.27121 L 327.94822,480.81578 L 328.79379,480.36034 L 329.63937,479.93744 L 330.48495,479.54707 L 331.33052,479.15669 L 332.1761,478.83138 L 333.0542,478.50607 L 333.89977,478.21329 L 334.77788,477.98557 L 335.65598,477.72533 L 336.53408,477.53014 L 337.44471,477.36749 L 338.3228,477.20483 L 339.23342,477.07471 L 340.14404,477.00965 L 341.05466,476.91206 L 341.96529,476.87952 L 342.90843,476.87952 L 343.65644,476.87952 L 344.40445,476.91206 L 345.18498,476.97711 L 345.93299,477.04218 L 346.68101,477.13977 L 347.46154,477.23737 L 348.20955,477.40002 L 348.99008,477.56268 L 349.73809,477.72533 L 350.51863,477.92052 L 351.26663,478.14823 L 352.04717,478.40848 L 352.8277,478.66873 L 353.57571,478.96151 L 354.35624,479.25429 L 355.10425,479.5796 L 355.91731,479.93744 L 356.69785,480.32781 L 357.54342,480.75071 L 358.42152,481.23868 L 359.29962,481.72664 L 360.21024,482.24714 L 361.15339,482.8327 L 362.09653,483.41826 L 364.1129,484.7195 L 366.22684,486.1834 L 368.40583,487.77741 L 370.74743,489.53409 L 367.78791,481.72664 L 368.56845,480.65313 L 369.3815,479.67719 L 370.19456,478.79886 L 371.00761,477.95305 L 371.4304,477.56268 L 371.85319,477.20483 L 372.27598,476.84699 L 372.69876,476.52168 L 373.15407,476.19637 L 373.57686,475.90359 L 374.03218,475.61081 L 374.45497,475.35056 L 374.91028,475.12284 L 375.36559,474.89513 L 375.8209,474.66741 L 376.30873,474.47222 L 376.79656,474.30957 L 377.2844,474.11438 L 377.77223,473.98426 L 378.26006,473.85414 L 378.78042,473.72402 L 379.30077,473.62642 L 379.82113,473.52883 L 380.34148,473.46376 L 381.44723,473.36617 L 382.553,473.33364 L 383.56118,473.36617 L 384.50432,473.43123 L 385.44747,473.56136 L 386.39062,473.72402 L 387.26871,473.95173 L 388.14681,474.21198 L 389.02491,474.53729 L 389.87049,474.89513 L 390.68354,475.31803 L 391.46407,475.77346 L 392.24461,476.29396 L 392.99262,476.84699 L 393.74063,477.46508 L 394.45612,478.11571 L 395.13909,478.83138 L 395.78953,479.5796 L 396.43997,480.39287 L 397.02537,481.20615 L 397.57824,482.05195 L 398.0986,482.93029 L 398.55391,483.80863 L 399.00922,484.7195 L 399.39949,485.69543 L 399.72471,486.67136 L 400.04994,487.64729 L 400.31011,488.68829 L 400.53777,489.72928 L 400.70038,490.8028 L 400.86299,491.90886 L 400.96056,493.04744 L 401.0256,494.18602 L 401.05813,495.38968 L 401.0256,496.3656 L 400.96056,497.43913 L 400.83047,498.57772 L 400.66786,499.8139 L 400.57029,500.49705 L 400.47272,501.21273 L 400.31011,502.02601 L 400.18003,502.87181 L 399.98489,503.81521 L 399.82228,504.79114 L 399.59463,505.86466 L 399.39949,506.97073 L 400.79795,507.71893 L 402.16388,508.46715 L 403.46477,509.11777 L 404.76565,509.73586 L 406.03402,510.28889 L 407.23734,510.77685 L 408.40814,511.23228 L 409.54642,511.62266 L 410.65217,511.94797 L 411.75793,512.24075 L 412.86368,512.501 L 413.96944,512.69618 L 415.04267,512.85884 L 416.08339,512.95643 L 417.15661,513.02149 L 418.19733,513.05402 L 419.14047,513.02149 L 420.05109,512.98896 L 420.96171,512.9239 L 421.83981,512.79377 L 422.68539,512.66365 L 423.53096,512.501 L 424.34402,512.30581 L 425.15707,512.04556 L 425.90508,511.78531 L 426.68562,511.49254 L 427.43363,511.16723 L 428.14912,510.80939 L 428.83209,510.41901 L 429.51505,509.99611 L 430.16549,509.54067 L 430.81594,509.05271 L 431.43386,508.56474 L 431.98674,508.04424 L 432.53961,507.49121 L 433.02745,506.93819 L 433.48276,506.38516 L 433.90555,505.7996 L 434.26329,505.21405 L 434.58852,504.59596 L 434.91373,503.97787 L 435.14139,503.35978 L 435.36904,502.70916 L 435.56418,502.05854 L 435.69427,501.37539 L 435.79184,500.65971 L 435.85688,499.97655 L 435.85688,499.26086 L 435.85688,498.7729 L 435.79184,498.25241 L 435.72679,497.79697 L 435.62922,497.30901 L 435.49914,496.82105 L 435.33653,496.33308 L 435.14139,495.8451 L 434.91373,495.38968 L 434.65355,494.90171 L 434.39339,494.44628 L 434.06816,493.99084 L 433.74293,493.53541 L 433.35267,493.04744 L 432.96241,492.59201 L 432.53961,492.1691 L 432.0843,491.71367 L 431.20621,490.83533 L 430.42567,490.02206 L 429.77523,489.24132 L 429.25487,488.52563 L 429.02722,488.20032 L 428.83209,487.87501 L 428.66948,487.5497 L 428.53938,487.25692 L 428.44182,486.96414 L 428.34425,486.67136 L 428.31173,486.41111 L 428.2792,486.15087 L 428.31173,485.43518 L 428.34425,484.7195 L 428.4093,484.00382 L 428.53938,483.32067 L 428.66948,482.67005 L 428.79956,482.01942 L 428.99469,481.3688 L 429.22235,480.75071 L 429.45,480.13263 L 429.74271,479.54707 L 430.03541,478.96151 L 430.36063,478.40848 L 430.7509,477.85545 L 431.14116,477.33495 L 431.53143,476.81446 L 431.98674,476.32649 L 432.47457,475.83853 L 432.96241,475.3831 L 433.45024,474.96019 L 433.97059,474.56982 L 434.49095,474.21198 L 435.04383,473.88667 L 435.5967,473.59389 L 436.14958,473.33364 L 436.73498,473.10592 L 437.3529,472.91073 L 437.97082,472.74808 L 438.58875,472.61796 L 439.23919,472.48783 L 439.92215,472.42277 L 440.5726,472.35771 L 441.28809,472.35771 L 441.97105,472.35771 L 442.65402,472.42277 L 443.30446,472.48783 L 443.9549,472.61796 L 444.57283,472.74808 L 445.19075,472.91073 L 445.77615,473.10592 L 446.36155,473.33364 L 446.91443,473.59389 L 447.46731,473.88667 L 448.02018,474.21198 L 448.54054,474.56982 L 449.02837,474.96019 L 449.51621,475.3831 L 450.00404,475.83853 L 450.45935,476.32649 L 450.88213,476.81446 L 451.27241,477.33495 L 451.66267,477.85545 L 452.02041,478.40848 L 452.31311,478.99404 L 452.60582,479.5796 L 452.86599,480.19768 L 453.12617,480.81578 L 453.3213,481.4664 L 453.51644,482.14955 L 453.64653,482.8327 L 453.77661,483.51586 L 453.87418,484.23153 L 453.93922,484.97975 L 454.00427,485.72796 L 454.00427,486.47617 L 454.00427,487.12679 L 453.97175,487.77741 L 453.9067,488.39551 L 453.84166,489.04613 L 453.74409,489.66421 L 453.64653,490.2823 L 453.51644,490.93293 L 453.38635,491.55102 L 453.19121,492.20164 L 453.0286,492.81972 L 452.80095,493.43782 L 452.57329,494.0559 L 452.31311,494.70652 L 452.05293,495.32462 L 451.76023,495.9427 L 451.46754,496.56079 L 451.14231,497.17889 L 450.78457,497.79697 L 450.42682,498.41506 L 450.03656,499.03316 L 449.64629,499.61871 L 449.2235,500.2368 L 448.76819,500.82236 L 448.31288,501.44044 L 447.82505,502.02601 L 447.30469,502.61156 L 446.78434,503.22966 L 446.26399,503.81521 L 445.1257,504.95379 L 443.92238,506.12492 L 443.07681,506.87313 L 442.23123,507.58881 L 441.38565,508.3045 L 440.54008,508.98765 L 439.66198,509.63827 L 438.8164,510.28889 L 437.93831,510.87444 L 437.02767,511.46 L 436.14958,512.04556 L 435.27148,512.56605 L 434.36086,513.08655 L 433.45024,513.60705 L 432.53961,514.06248 L 431.59647,514.51792 L 430.68585,514.94082 L 429.74271,515.36373 L 428.79956,515.72157 L 427.85642,516.0794 L 426.91327,516.40472 L 425.97013,516.6975 L 424.99446,516.99028 L 424.05132,517.25053 L 423.07565,517.47824 L 422.09999,517.67343 L 421.12432,517.86861 L 420.14866,518.03127 L 419.17299,518.16139 L 418.1648,518.25899 L 417.18914,518.35658 L 416.18095,518.42165 L 415.20528,518.45417 L 414.1971,518.45417 L 413.25396,518.45417 L 412.3108,518.38911 L 411.33514,518.32405 L 410.32695,518.22646 L 409.31876,518.0638 L 408.27805,517.90115 L 407.23734,517.70596 L 406.16411,517.47824 L 405.09088,517.218 L 403.98513,516.92521 L 402.87937,516.63243 L 401.77361,516.27459 L 400.63534,515.88423 L 399.49706,515.49385 L 398.35878,515.07094 L 397.18798,514.61551 L 396.53754,515.94928 L 395.85458,517.31559 L 395.13909,518.77948 L 394.4236,520.24338 L 393.67559,521.77234 L 392.89505,523.36636 L 392.082,524.99291 L 391.26894,526.68453 L 390.39085,528.40866 L 389.54526,530.16534 L 388.63464,531.95455 L 387.72402,533.77629 L 386.78088,535.63056 L 385.83774,537.54989 L 384.86207,539.46922 L 383.8864,541.45361 z M 379.85365,546.52845 L 383.8864,547.86222 L 384.56937,546.56098 L 385.21981,545.3248 L 385.90278,544.12115 L 386.61827,542.95003 L 387.30124,541.84398 L 388.01672,540.77046 L 388.73221,539.76199 L 389.4477,538.78607 L 390.16319,537.87519 L 390.9112,536.96433 L 391.62669,536.15105 L 392.40722,535.33777 L 393.15523,534.6221 L 393.90324,533.90641 L 394.68378,533.25579 L 395.4643,532.6377 L 396.24484,532.08468 L 397.0579,531.56418 L 397.87095,531.07622 L 398.71653,530.62078 L 399.59463,530.19788 L 400.47272,529.8075 L 401.38334,529.44966 L 402.29397,529.15688 L 403.23712,528.86411 L 404.18026,528.63638 L 405.15593,528.4412 L 406.16411,528.24601 L 407.1723,528.14842 L 408.21301,528.05082 L 409.25372,527.98576 L 410.32695,527.95323 L 411.69288,527.98576 L 413.02629,528.08335 L 414.35971,528.24601 L 415.62808,528.4412 L 416.89643,528.70145 L 418.13228,529.02676 L 419.3356,529.41712 L 420.5064,529.84003 L 421.05928,530.10028 L 421.64468,530.328 L 422.19756,530.62078 L 422.75044,530.91356 L 423.30331,531.20634 L 423.82367,531.53165 L 424.37655,531.85696 L 424.8969,532.18227 L 425.90508,532.93048 L 426.91327,533.71123 L 427.85642,534.55703 L 428.79956,535.4679 L 429.71018,536.44383 L 430.52324,537.41976 L 431.30378,538.42822 L 432.05178,539.46922 L 432.70223,540.54274 L 433.32015,541.64879 L 433.87303,542.78738 L 434.36086,543.92596 L 434.78365,545.12961 L 435.17391,546.33326 L 435.46661,547.60198 L 435.72679,548.87068 L 435.95445,550.17192 L 436.08453,551.5057 L 436.1821,552.872 L 436.21463,554.27083 L 436.1821,555.76726 L 436.08453,557.26368 L 435.92192,558.72759 L 435.72679,560.15895 L 435.46661,561.59032 L 435.10887,562.98915 L 434.7186,564.38798 L 434.29581,565.75429 L 433.77546,567.08806 L 433.19006,568.42183 L 432.57214,569.72308 L 431.88917,571.02431 L 431.14116,572.29302 L 430.32811,573.56173 L 429.45,574.79792 L 428.50686,576.00156 L 427.53119,577.2052 L 426.49049,578.37632 L 425.38473,579.51492 L 424.21393,580.62096 L 423.01061,581.72701 L 421.74225,582.80054 L 420.44135,583.84154 L 419.0429,584.85 L 417.61192,585.82593 L 416.14842,586.80186 L 414.58736,587.71273 L 412.99378,588.6236 L 411.33514,589.50193 L 409.64399,590.34774 L 407.88779,591.19355 L 406.06655,592.00683 L 405.74132,592.13695 L 405.31853,592.29961 L 404.86322,592.49479 L 404.31034,592.72251 L 403.13955,593.243 L 402.00127,593.73096 L 400.89552,594.25146 L 399.82228,594.77196 L 398.78157,595.29246 L 397.80591,595.81295 L 396.83024,596.33345 L 395.91961,596.85395 L 395.04152,597.37445 L 394.19594,597.89494 L 393.38288,598.44797 L 392.60235,598.96846 L 391.88686,599.48896 L 391.2039,600.04199 L 390.52093,600.56249 L 389.90301,601.11551 L 389.31761,601.63601 L 388.79725,602.18903 L 388.2769,602.74206 L 387.82159,603.2951 L 387.3988,603.81558 L 386.97601,604.36861 L 386.61827,604.92164 L 386.32557,605.47467 L 386.03287,606.02769 L 385.80521,606.58072 L 385.57756,607.16628 L 385.41495,607.71931 L 385.28486,608.27234 L 385.18729,608.82537 L 385.12225,609.41092 L 385.12225,609.96395 L 385.12225,610.58204 L 385.18729,611.20013 L 385.25233,611.78569 L 385.3499,612.37125 L 385.47999,612.92427 L 385.61008,613.4773 L 385.80521,614.03033 L 386.03287,614.55083 L 386.26052,615.07133 L 386.5207,615.55929 L 386.8134,616.04725 L 387.13862,616.50269 L 387.49637,616.99065 L 387.88663,617.41356 L 388.30942,617.83646 L 388.73221,618.25936 L 389.18752,618.64974 L 389.67536,619.0401 L 390.16319,619.39795 L 390.65102,619.69072 L 391.17137,619.98351 L 391.72425,620.27629 L 392.27713,620.50401 L 392.83,620.73172 L 393.44793,620.92691 L 394.03333,621.08956 L 394.65125,621.21968 L 395.30169,621.34981 L 395.95214,621.4474 L 396.60259,621.51247 L 397.28555,621.54499 L 398.00104,621.54499 L 398.68401,621.54499 L 399.33445,621.51247 L 400.01741,621.41487 L 400.66786,621.34981 L 401.3183,621.21968 L 401.93622,621.08956 L 402.55415,620.89437 L 403.17207,620.69918 L 403.78999,620.50401 L 404.37539,620.24376 L 404.96079,619.98351 L 405.54619,619.6582 L 406.13159,619.33288 L 406.68446,618.97505 L 407.23734,618.61721 L 407.7577,618.22683 L 408.31057,617.80393 L 408.79841,617.34849 L 409.28624,616.89306 L 409.74155,616.43763 L 410.16435,615.94966 L 410.58713,615.42917 L 410.9774,614.90867 L 411.33514,614.38817 L 411.69288,613.83514 L 412.01811,613.28211 L 412.3108,612.69656 L 412.6035,612.11099 L 412.86368,611.49291 L 413.12386,610.87482 L 413.31899,610.2242 L 413.51412,609.57358 L 413.67674,608.7603 L 413.83935,607.78437 L 413.96944,606.64579 L 414.09953,605.27949 L 414.16457,604.53127 L 414.29466,603.81558 L 414.48979,603.16496 L 414.68493,602.54688 L 414.81502,602.28663 L 414.97762,601.99385 L 415.10772,601.7336 L 415.30285,601.50588 L 415.46546,601.24564 L 415.66059,601.01792 L 415.85573,600.82273 L 416.08339,600.62754 L 416.31104,600.43236 L 416.57122,600.23718 L 416.79887,600.07452 L 417.09157,599.94439 L 417.64445,599.65161 L 418.26237,599.45643 L 418.94534,599.26124 L 419.66083,599.16365 L 420.44135,599.06606 L 421.25441,599.06606 L 421.70972,599.06606 L 422.16503,599.09858 L 422.62034,599.13112 L 423.07565,599.22871 L 423.49844,599.29377 L 423.92124,599.4239 L 424.34402,599.55403 L 424.73429,599.68415 L 425.12456,599.8468 L 425.51482,600.04199 L 425.90508,600.23718 L 426.26283,600.46489 L 426.62057,600.72514 L 426.97832,600.98539 L 427.30354,601.24564 L 427.66129,601.53842 L 427.98651,601.86373 L 428.2792,602.18903 L 428.53938,602.54688 L 428.79956,602.87219 L 429.05974,603.23003 L 429.25487,603.58787 L 429.45,603.94571 L 429.64514,604.33608 L 429.77523,604.72646 L 429.90531,605.11683 L 430.03541,605.50719 L 430.13297,605.89757 L 430.19801,606.32048 L 430.23054,606.74338 L 430.26306,607.16628 L 430.29559,607.62172 L 430.26306,608.04462 L 430.26306,608.50006 L 430.19801,608.92295 L 430.13297,609.37839 L 430.03541,609.8013 L 429.93784,610.2242 L 429.80775,610.67963 L 429.67766,611.10253 L 429.51505,611.52544 L 429.35244,611.94834 L 429.12479,612.37125 L 428.92966,612.79415 L 428.702,613.21706 L 428.44182,613.60742 L 428.14912,614.03033 L 427.85642,614.45323 L 427.20598,615.26651 L 426.49049,616.07979 L 425.70995,616.86053 L 424.83186,617.64127 L 423.88871,618.42202 L 422.848,619.20276 L 421.77477,619.95098 L 420.57145,620.69918 L 419.36813,621.41487 L 418.09976,622.09802 L 416.79887,622.71611 L 415.49798,623.30167 L 414.13205,623.8547 L 412.7336,624.31013 L 411.30262,624.76557 L 409.87164,625.15594 L 408.37562,625.51378 L 406.84707,625.80656 L 405.28601,626.06681 L 403.72495,626.29452 L 402.09883,626.45718 L 400.4402,626.55478 L 398.74905,626.61983 L 397.02537,626.65237 L 395.30169,626.61983 L 393.57802,626.55478 L 391.85435,626.45718 L 390.13067,626.29452 L 388.40699,626.09934 L 386.71583,625.87162 L 385.02468,625.57884 L 383.33352,625.25353 L 381.67489,624.86316 L 379.98374,624.44025 L 378.32511,623.98482 L 376.66647,623.46433 L 375.00784,622.9113 L 373.34921,622.32574 L 371.7231,621.67512 L 370.09699,620.99197 L 368.47088,620.27629 L 366.87729,619.49554 L 365.31622,618.7148 L 363.78769,617.86899 L 362.25914,617.02318 L 360.79564,616.11232 L 359.33214,615.20145 L 357.90116,614.22552 L 356.53523,613.21706 L 355.1693,612.20859 L 353.83589,611.13507 L 352.50248,610.02902 L 351.23412,608.89042 L 349.99827,607.71931 L 348.76243,606.51566 L 347.5591,605.27949 L 346.55092,604.1409 L 345.54272,603.00231 L 344.56707,601.79866 L 343.62392,600.59502 L 342.71329,599.39137 L 341.8352,598.12266 L 340.9571,596.85395 L 340.14404,595.5527 L 339.33099,594.25146 L 338.55046,592.91769 L 337.83497,591.55139 L 337.11948,590.18508 L 336.43651,588.75372 L 335.78607,587.35489 L 335.16815,585.89099 L 334.55023,584.42709 L 333.99735,582.93067 L 333.47699,581.46677 L 332.98915,579.97035 L 332.53385,578.47392 L 332.11106,576.97749 L 331.72079,575.48106 L 331.39557,573.95211 L 331.07034,572.45567 L 330.81017,570.92672 L 330.55,569.39777 L 330.35486,567.90133 L 330.19225,566.37238 L 330.06217,564.81089 L 329.99712,563.28193 L 329.93207,561.75297 L 329.89954,560.19148 L 329.93207,559.15049 L 329.93207,558.07697 L 329.99712,557.06851 L 330.02964,556.02751 L 330.1272,555.05157 L 330.19225,554.04311 L 330.28982,553.06718 L 330.4199,552.09125 L 330.55,551.14786 L 330.71261,550.20445 L 330.87521,549.26106 L 331.07034,548.35018 L 331.26548,547.43932 L 331.49314,546.52845 L 331.72079,545.65011 L 331.98097,544.8043 L 332.24114,543.92596 L 332.50132,543.08015 L 332.82655,542.26688 L 333.11925,541.45361 L 333.44446,540.64034 L 333.80221,539.85958 L 334.15995,539.07884 L 334.55023,538.2981 L 334.94049,537.54989 L 335.33075,536.80167 L 335.75355,536.05346 L 336.20886,535.33777 L 336.66417,534.65462 L 337.11948,533.93895 L 337.60731,533.25579 L 338.12767,532.60517 L 338.64803,531.95455 L 339.16837,531.30393 L 339.68873,530.68584 L 340.24161,530.10028 L 340.79448,529.54725 L 341.34736,528.99423 L 341.93276,528.47373 L 342.51816,527.95323 L 343.10356,527.46527 L 343.68896,527.00984 L 344.30689,526.55439 L 344.89228,526.13149 L 345.51021,525.74112 L 346.16065,525.35076 L 346.77857,524.99291 L 347.42902,524.63507 L 348.11199,524.30976 L 348.76243,524.01698 L 349.44539,523.75673 L 350.12836,523.49649 L 350.81132,523.23623 L 351.49429,523.04105 L 352.20978,522.84586 L 352.92526,522.65068 L 353.67328,522.48802 L 354.38876,522.3579 L 355.13678,522.26031 L 355.88479,522.16271 L 356.66532,522.09765 L 357.41334,522.03259 L 358.19386,522.00005 L 358.9744,522.00005 L 360.1452,522.03259 L 361.25095,522.09765 L 362.35671,522.19524 L 363.42994,522.3579 L 364.47065,522.55308 L 365.47884,522.81333 L 366.48702,523.10611 L 367.43017,523.46395 L 368.37331,523.8218 L 369.28394,524.27723 L 370.16204,524.73266 L 371.04013,525.28569 L 371.85319,525.83872 L 372.66624,526.45681 L 373.44678,527.10743 L 374.19479,527.82311 L 374.9428,528.57132 L 375.62577,529.31954 L 376.24368,530.13281 L 376.82909,530.94609 L 377.34944,531.79189 L 377.83728,532.67023 L 378.29259,533.5811 L 378.68285,534.49196 L 379.04059,535.43537 L 379.33329,536.4113 L 379.59347,537.41976 L 379.82113,538.46076 L 379.98374,539.53427 L 380.0813,540.6078 L 380.14635,541.71385 L 380.17887,542.85245 L 380.17887,543.438 L 380.11383,544.18622 L 380.04878,545.06456 L 379.9187,546.04049 L 379.85365,546.33326 L 379.85365,546.52845 z "
       style="fill:#000000;fill-opacity:1;fill-rule:evenodd;stroke:none" />
  </g>
</svg>
