<?xml version="1.0" encoding="UTF-8" standalone="no"?>
<!DOCTYPE svg PUBLIC "-//W3C//DTD SVG 1.1//EN"
 "http://www.w3.org/Graphics/SVG/1.1/DTD/svg11.dtd">
<!-- Generated by graphviz version 2.38.0 (20140413.2041)
 -->
<!-- Title: ta1 Pages: 1 -->
<svg width="422pt" height="332pt"
 viewBox="0.00 0.00 422.00 332.00" xmlns="http://www.w3.org/2000/svg" xmlns:xlink="http://www.w3.org/1999/xlink">
<g id="graph0" class="graph" transform="scale(1 1) rotate(0) translate(4 328)">
<title>ta1</title>
<polygon fill="white" stroke="none" points="-4,4 -4,-328 418,-328 418,4 -4,4"/>
<!-- a -->
<g id="node1" class="node"><title>a</title>
<ellipse fill="none" stroke="black" cx="171" cy="-306" rx="27" ry="18"/>
<text text-anchor="middle" x="171" y="-302.3" font-family="Times,serif" font-size="14.00">a</text>
</g>
<!-- b -->
<g id="node2" class="node"><title>b</title>
<ellipse fill="none" stroke="black" cx="99" cy="-234" rx="27" ry="18"/>
<text text-anchor="middle" x="99" y="-230.3" font-family="Times,serif" font-size="14.00">b</text>
</g>
<!-- a&#45;&gt;b -->
<g id="edge1" class="edge"><title>a&#45;&gt;b</title>
<path fill="none" stroke="black" d="M156.43,-290.834C146.25,-280.938 132.476,-267.546 120.969,-256.359"/>
<polygon fill="black" stroke="black" points="123.405,-253.846 113.796,-249.385 118.526,-258.865 123.405,-253.846"/>
</g>
<!-- c -->
<g id="node5" class="node"><title>c</title>
<ellipse fill="none" stroke="black" cx="171" cy="-234" rx="27" ry="18"/>
<text text-anchor="middle" x="171" y="-230.3" font-family="Times,serif" font-size="14.00">c</text>
</g>
<!-- a&#45;&gt;c -->
<g id="edge4" class="edge"><title>a&#45;&gt;c</title>
<path fill="none" stroke="black" d="M171,-287.697C171,-279.983 171,-270.712 171,-262.112"/>
<polygon fill="black" stroke="black" points="174.5,-262.104 171,-252.104 167.5,-262.104 174.5,-262.104"/>
</g>
<!-- d -->
<g id="node7" class="node"><title>d</title>
<ellipse fill="none" stroke="black" cx="279" cy="-234" rx="27" ry="18"/>
<text text-anchor="middle" x="279" y="-230.3" font-family="Times,serif" font-size="14.00">d</text>
</g>
<!-- a&#45;&gt;d -->
<g id="edge6" class="edge"><title>a&#45;&gt;d</title>
<path fill="none" stroke="black" d="M189.812,-292.807C207.002,-281.665 232.618,-265.062 251.993,-252.504"/>
<polygon fill="black" stroke="black" points="253.916,-255.429 260.403,-247.053 250.108,-249.555 253.916,-255.429"/>
</g>
<!-- e -->
<g id="node3" class="node"><title>e</title>
<ellipse fill="none" stroke="black" cx="27" cy="-162" rx="27" ry="18"/>
<text text-anchor="middle" x="27" y="-158.3" font-family="Times,serif" font-size="14.00">e</text>
</g>
<!-- b&#45;&gt;e -->
<g id="edge2" class="edge"><title>b&#45;&gt;e</title>
<path fill="none" stroke="black" d="M84.4297,-218.834C74.2501,-208.938 60.4761,-195.546 48.9694,-184.359"/>
<polygon fill="black" stroke="black" points="51.4055,-181.846 41.7957,-177.385 46.5259,-186.865 51.4055,-181.846"/>
</g>
<!-- f -->
<g id="node4" class="node"><title>f</title>
<ellipse fill="none" stroke="black" cx="99" cy="-162" rx="27" ry="18"/>
<text text-anchor="middle" x="99" y="-158.3" font-family="Times,serif" font-size="14.00">f</text>
</g>
<!-- b&#45;&gt;f -->
<g id="edge3" class="edge"><title>b&#45;&gt;f</title>
<path fill="none" stroke="black" d="M99,-215.697C99,-207.983 99,-198.712 99,-190.112"/>
<polygon fill="black" stroke="black" points="102.5,-190.104 99,-180.104 95.5001,-190.104 102.5,-190.104"/>
</g>
<!-- g -->
<g id="node6" class="node"><title>g</title>
<ellipse fill="none" stroke="black" cx="171" cy="-162" rx="27" ry="18"/>
<text text-anchor="middle" x="171" y="-158.3" font-family="Times,serif" font-size="14.00">g</text>
</g>
<!-- c&#45;&gt;g -->
<g id="edge5" class="edge"><title>c&#45;&gt;g</title>
<path fill="none" stroke="black" d="M171,-215.697C171,-207.983 171,-198.712 171,-190.112"/>
<polygon fill="black" stroke="black" points="174.5,-190.104 171,-180.104 167.5,-190.104 174.5,-190.104"/>
</g>
<!-- 3 -->
<g id="node8" class="node"><title>3</title>
<ellipse fill="none" stroke="black" cx="243" cy="-162" rx="27" ry="18"/>
<text text-anchor="middle" x="243" y="-158.3" font-family="Times,serif" font-size="14.00">3</text>
</g>
<!-- d&#45;&gt;3 -->
<g id="edge7" class="edge"><title>d&#45;&gt;3</title>
<path fill="none" stroke="black" d="M270.65,-216.765C266.288,-208.283 260.853,-197.714 255.959,-188.197"/>
<polygon fill="black" stroke="black" points="258.99,-186.439 251.304,-179.147 252.765,-189.641 258.99,-186.439"/>
</g>
<!-- i -->
<g id="node14" class="node"><title>i</title>
<ellipse fill="none" stroke="black" cx="315" cy="-162" rx="27" ry="18"/>
<text text-anchor="middle" x="315" y="-158.3" font-family="Times,serif" font-size="14.00">i</text>
</g>
<!-- d&#45;&gt;i -->
<g id="edge13" class="edge"><title>d&#45;&gt;i</title>
<path fill="none" stroke="black" d="M287.35,-216.765C291.712,-208.283 297.147,-197.714 302.041,-188.197"/>
<polygon fill="black" stroke="black" points="305.235,-189.641 306.696,-179.147 299.01,-186.439 305.235,-189.641"/>
</g>
<!-- j -->
<g id="node15" class="node"><title>j</title>
<ellipse fill="none" stroke="black" cx="387" cy="-162" rx="27" ry="18"/>
<text text-anchor="middle" x="387" y="-158.3" font-family="Times,serif" font-size="14.00">j</text>
</g>
<!-- d&#45;&gt;j -->
<g id="edge14" class="edge"><title>d&#45;&gt;j</title>
<path fill="none" stroke="black" d="M297.812,-220.807C315.002,-209.665 340.618,-193.062 359.993,-180.504"/>
<polygon fill="black" stroke="black" points="361.916,-183.429 368.403,-175.053 358.108,-177.555 361.916,-183.429"/>
</g>
<!-- 7 -->
<g id="node9" class="node"><title>7</title>
<ellipse fill="none" stroke="black" cx="171" cy="-90" rx="27" ry="18"/>
<text text-anchor="middle" x="171" y="-86.3" font-family="Times,serif" font-size="14.00">7</text>
</g>
<!-- 3&#45;&gt;7 -->
<g id="edge8" class="edge"><title>3&#45;&gt;7</title>
<path fill="none" stroke="black" d="M228.43,-146.834C218.25,-136.938 204.476,-123.546 192.969,-112.359"/>
<polygon fill="black" stroke="black" points="195.405,-109.846 185.796,-105.385 190.526,-114.865 195.405,-109.846"/>
</g>
<!-- 8 -->
<g id="node12" class="node"><title>8</title>
<ellipse fill="none" stroke="black" cx="243" cy="-90" rx="27" ry="18"/>
<text text-anchor="middle" x="243" y="-86.3" font-family="Times,serif" font-size="14.00">8</text>
</g>
<!-- 3&#45;&gt;8 -->
<g id="edge11" class="edge"><title>3&#45;&gt;8</title>
<path fill="none" stroke="black" d="M243,-143.697C243,-135.983 243,-126.712 243,-118.112"/>
<polygon fill="black" stroke="black" points="246.5,-118.104 243,-108.104 239.5,-118.104 246.5,-118.104"/>
</g>
<!-- 9 -->
<g id="node13" class="node"><title>9</title>
<ellipse fill="none" stroke="black" cx="315" cy="-90" rx="27" ry="18"/>
<text text-anchor="middle" x="315" y="-86.3" font-family="Times,serif" font-size="14.00">9</text>
</g>
<!-- 3&#45;&gt;9 -->
<g id="edge12" class="edge"><title>3&#45;&gt;9</title>
<path fill="none" stroke="black" d="M257.57,-146.834C267.75,-136.938 281.524,-123.546 293.031,-112.359"/>
<polygon fill="black" stroke="black" points="295.474,-114.865 300.204,-105.385 290.595,-109.846 295.474,-114.865"/>
</g>
<!-- 10 -->
<g id="node10" class="node"><title>10</title>
<ellipse fill="none" stroke="black" cx="135" cy="-18" rx="27" ry="18"/>
<text text-anchor="middle" x="135" y="-14.3" font-family="Times,serif" font-size="14.00">10</text>
</g>
<!-- 7&#45;&gt;10 -->
<g id="edge9" class="edge"><title>7&#45;&gt;10</title>
<path fill="none" stroke="black" d="M162.65,-72.7646C158.288,-64.2831 152.853,-53.7144 147.959,-44.1974"/>
<polygon fill="black" stroke="black" points="150.99,-42.4395 143.304,-35.1473 144.765,-45.6409 150.99,-42.4395"/>
</g>
<!-- 11 -->
<g id="node11" class="node"><title>11</title>
<ellipse fill="none" stroke="black" cx="207" cy="-18" rx="27" ry="18"/>
<text text-anchor="middle" x="207" y="-14.3" font-family="Times,serif" font-size="14.00">11</text>
</g>
<!-- 7&#45;&gt;11 -->
<g id="edge10" class="edge"><title>7&#45;&gt;11</title>
<path fill="none" stroke="black" d="M179.35,-72.7646C183.712,-64.2831 189.147,-53.7144 194.041,-44.1974"/>
<polygon fill="black" stroke="black" points="197.235,-45.6409 198.696,-35.1473 191.01,-42.4395 197.235,-45.6409"/>
</g>
</g>
</svg>
