<?xml version="1.0" encoding="UTF-8" standalone="no"?>
<!DOCTYPE svg PUBLIC "-//W3C//DTD SVG 1.1//EN"
 "http://www.w3.org/Graphics/SVG/1.1/DTD/svg11.dtd">
<!-- Generated by graphviz version 2.38.0 (20140413.2041)
 -->
<!-- Title: ta Pages: 1 -->
<svg width="422pt" height="260pt"
 viewBox="0.00 0.00 422.00 260.00" xmlns="http://www.w3.org/2000/svg" xmlns:xlink="http://www.w3.org/1999/xlink">
<g id="graph0" class="graph" transform="scale(1 1) rotate(0) translate(4 256)">
<title>ta</title>
<polygon fill="white" stroke="none" points="-4,4 -4,-256 418,-256 418,4 -4,4"/>
<!-- a -->
<g id="node1" class="node"><title>a</title>
<ellipse fill="none" stroke="black" cx="171" cy="-234" rx="27" ry="18"/>
<text text-anchor="middle" x="171" y="-230.3" font-family="Times,serif" font-size="14.00">a</text>
</g>
<!-- b -->
<g id="node2" class="node"><title>b</title>
<ellipse fill="none" stroke="black" cx="99" cy="-162" rx="27" ry="18"/>
<text text-anchor="middle" x="99" y="-158.3" font-family="Times,serif" font-size="14.00">b</text>
</g>
<!-- a&#45;&gt;b -->
<g id="edge1" class="edge"><title>a&#45;&gt;b</title>
<path fill="none" stroke="black" d="M156.43,-218.834C146.25,-208.938 132.476,-195.546 120.969,-184.359"/>
<polygon fill="black" stroke="black" points="123.405,-181.846 113.796,-177.385 118.526,-186.865 123.405,-181.846"/>
</g>
<!-- c -->
<g id="node5" class="node"><title>c</title>
<ellipse fill="none" stroke="black" cx="171" cy="-162" rx="27" ry="18"/>
<text text-anchor="middle" x="171" y="-158.3" font-family="Times,serif" font-size="14.00">c</text>
</g>
<!-- a&#45;&gt;c -->
<g id="edge4" class="edge"><title>a&#45;&gt;c</title>
<path fill="none" stroke="black" d="M171,-215.697C171,-207.983 171,-198.712 171,-190.112"/>
<polygon fill="black" stroke="black" points="174.5,-190.104 171,-180.104 167.5,-190.104 174.5,-190.104"/>
</g>
<!-- d -->
<g id="node7" class="node"><title>d</title>
<ellipse fill="none" stroke="black" cx="279" cy="-162" rx="27" ry="18"/>
<text text-anchor="middle" x="279" y="-158.3" font-family="Times,serif" font-size="14.00">d</text>
</g>
<!-- a&#45;&gt;d -->
<g id="edge6" class="edge"><title>a&#45;&gt;d</title>
<path fill="none" stroke="black" d="M189.812,-220.807C207.002,-209.665 232.618,-193.062 251.993,-180.504"/>
<polygon fill="black" stroke="black" points="253.916,-183.429 260.403,-175.053 250.108,-177.555 253.916,-183.429"/>
</g>
<!-- e -->
<g id="node3" class="node"><title>e</title>
<ellipse fill="none" stroke="black" cx="27" cy="-90" rx="27" ry="18"/>
<text text-anchor="middle" x="27" y="-86.3" font-family="Times,serif" font-size="14.00">e</text>
</g>
<!-- b&#45;&gt;e -->
<g id="edge2" class="edge"><title>b&#45;&gt;e</title>
<path fill="none" stroke="black" d="M84.4297,-146.834C74.2501,-136.938 60.4761,-123.546 48.9694,-112.359"/>
<polygon fill="black" stroke="black" points="51.4055,-109.846 41.7957,-105.385 46.5259,-114.865 51.4055,-109.846"/>
</g>
<!-- f -->
<g id="node4" class="node"><title>f</title>
<ellipse fill="none" stroke="black" cx="99" cy="-90" rx="27" ry="18"/>
<text text-anchor="middle" x="99" y="-86.3" font-family="Times,serif" font-size="14.00">f</text>
</g>
<!-- b&#45;&gt;f -->
<g id="edge3" class="edge"><title>b&#45;&gt;f</title>
<path fill="none" stroke="black" d="M99,-143.697C99,-135.983 99,-126.712 99,-118.112"/>
<polygon fill="black" stroke="black" points="102.5,-118.104 99,-108.104 95.5001,-118.104 102.5,-118.104"/>
</g>
<!-- g -->
<g id="node6" class="node"><title>g</title>
<ellipse fill="none" stroke="black" cx="171" cy="-90" rx="27" ry="18"/>
<text text-anchor="middle" x="171" y="-86.3" font-family="Times,serif" font-size="14.00">g</text>
</g>
<!-- c&#45;&gt;g -->
<g id="edge5" class="edge"><title>c&#45;&gt;g</title>
<path fill="none" stroke="black" d="M171,-143.697C171,-135.983 171,-126.712 171,-118.112"/>
<polygon fill="black" stroke="black" points="174.5,-118.104 171,-108.104 167.5,-118.104 174.5,-118.104"/>
</g>
<!-- h -->
<g id="node8" class="node"><title>h</title>
<ellipse fill="none" stroke="black" cx="243" cy="-90" rx="27" ry="18"/>
<text text-anchor="middle" x="243" y="-86.3" font-family="Times,serif" font-size="14.00">h</text>
</g>
<!-- d&#45;&gt;h -->
<g id="edge7" class="edge"><title>d&#45;&gt;h</title>
<path fill="none" stroke="black" d="M270.65,-144.765C266.288,-136.283 260.853,-125.714 255.959,-116.197"/>
<polygon fill="black" stroke="black" points="258.99,-114.439 251.304,-107.147 252.765,-117.641 258.99,-114.439"/>
</g>
<!-- i -->
<g id="node11" class="node"><title>i</title>
<ellipse fill="none" stroke="black" cx="315" cy="-90" rx="27" ry="18"/>
<text text-anchor="middle" x="315" y="-86.3" font-family="Times,serif" font-size="14.00">i</text>
</g>
<!-- d&#45;&gt;i -->
<g id="edge10" class="edge"><title>d&#45;&gt;i</title>
<path fill="none" stroke="black" d="M287.35,-144.765C291.712,-136.283 297.147,-125.714 302.041,-116.197"/>
<polygon fill="black" stroke="black" points="305.235,-117.641 306.696,-107.147 299.01,-114.439 305.235,-117.641"/>
</g>
<!-- j -->
<g id="node12" class="node"><title>j</title>
<ellipse fill="none" stroke="black" cx="387" cy="-90" rx="27" ry="18"/>
<text text-anchor="middle" x="387" y="-86.3" font-family="Times,serif" font-size="14.00">j</text>
</g>
<!-- d&#45;&gt;j -->
<g id="edge11" class="edge"><title>d&#45;&gt;j</title>
<path fill="none" stroke="black" d="M297.812,-148.807C315.002,-137.665 340.618,-121.062 359.993,-108.504"/>
<polygon fill="black" stroke="black" points="361.916,-111.429 368.403,-103.053 358.108,-105.555 361.916,-111.429"/>
</g>
<!-- k -->
<g id="node9" class="node"><title>k</title>
<ellipse fill="none" stroke="black" cx="207" cy="-18" rx="27" ry="18"/>
<text text-anchor="middle" x="207" y="-14.3" font-family="Times,serif" font-size="14.00">k</text>
</g>
<!-- h&#45;&gt;k -->
<g id="edge8" class="edge"><title>h&#45;&gt;k</title>
<path fill="none" stroke="black" d="M234.65,-72.7646C230.288,-64.2831 224.853,-53.7144 219.959,-44.1974"/>
<polygon fill="black" stroke="black" points="222.99,-42.4395 215.304,-35.1473 216.765,-45.6409 222.99,-42.4395"/>
</g>
<!-- l -->
<g id="node10" class="node"><title>l</title>
<ellipse fill="none" stroke="black" cx="279" cy="-18" rx="27" ry="18"/>
<text text-anchor="middle" x="279" y="-14.3" font-family="Times,serif" font-size="14.00">l</text>
</g>
<!-- h&#45;&gt;l -->
<g id="edge9" class="edge"><title>h&#45;&gt;l</title>
<path fill="none" stroke="black" d="M251.35,-72.7646C255.712,-64.2831 261.147,-53.7144 266.041,-44.1974"/>
<polygon fill="black" stroke="black" points="269.235,-45.6409 270.696,-35.1473 263.01,-42.4395 269.235,-45.6409"/>
</g>
</g>
</svg>
