<?xml version="1.0" encoding="utf-8" ?>
<!DOCTYPE svg PUBLIC "-//W3C//DTD SVG 1.1//EN" "http://www.w3.org/Graphics/SVG/1.1/DTD/svg11.dtd">
<svg height="357" version="1.1" width="492" xmlns="http://www.w3.org/2000/svg">
<rect fill="#87ceeb" height="67" stroke="#87ceeb" stroke-width="1" width="192" x="14" y="271"/>
<rect fill="none" height="67" stroke="#000000" stroke-width="1" width="192" x="14" y="271"/>
<text font-family="Dialog" font-size="12" x="93" y="303">
Gene</text>
<text font-family="Dialog" font-size="12" x="62" y="285">
&lt;&lt;interface&gt;&gt;</text>
<rect fill="#000000" height="1" stroke="#000000" stroke-width="1" width="192" x="14" y="313"/>
<text font-family="Dialog" font-size="12" x="18" y="327">
getAllele()</text>
<rect fill="#87ceeb" height="67" stroke="#87ceeb" stroke-width="1" width="192" x="286" y="271"/>
<rect fill="none" height="67" stroke="#000000" stroke-width="1" width="192" x="286" y="271"/>
<text font-family="Dialog" font-size="12" x="341" y="303">
Chromosome</text>
<text font-family="Dialog" font-size="12" x="334" y="285">
&lt;&lt;interface&gt;&gt;</text>
<rect fill="#000000" height="1" stroke="#000000" stroke-width="1" width="192" x="286" y="313"/>
<polyline fill="none" points="286,303 205,303" stroke="#000000" stroke-width="1"/>
<polygon fill="#ffffff" points="286,303 276,308 266,303 276,298" stroke="#ffffff" stroke-width="1"/>
<polygon fill="none" points="286,303 276,308 266,303 276,298" stroke="#000000" stroke-width="1"/>
<line fill="#000000" stroke="#000000" stroke-width="1" x1="217" x2="205" y1="296" y2="303"/>
<line fill="#000000" stroke="#000000" stroke-width="1" x1="217" x2="205" y1="310" y2="303"/>
<text font-family="Dialog" font-size="12" x="215" y="293">
1..*</text>
<rect fill="#87ceeb" height="69" stroke="#87ceeb" stroke-width="1" width="192" x="286" y="143"/>
<rect fill="none" height="69" stroke="#000000" stroke-width="1" width="192" x="286" y="143"/>
<text font-family="Dialog" font-size="12" x="352" y="156">
Genotype</text>
<rect fill="#000000" height="1" stroke="#000000" stroke-width="1" width="192" x="286" y="166"/>
<rect fill="#000000" height="1" stroke="#000000" stroke-width="1" width="192" x="286" y="188"/>
<polyline fill="none" points="382,211 382,271" stroke="#000000" stroke-width="1"/>
<polygon fill="#ffffff" points="382,211 387,221 382,231 377,221" stroke="#ffffff" stroke-width="1"/>
<polygon fill="none" points="382,211 387,221 382,231 377,221" stroke="#000000" stroke-width="1"/>
<line fill="#000000" stroke="#000000" stroke-width="1" x1="375" x2="382" y1="259" y2="271"/>
<line fill="#000000" stroke="#000000" stroke-width="1" x1="389" x2="382" y1="259" y2="271"/>
<text font-family="Dialog" font-size="12" x="388" y="254">
1..*</text>
<rect fill="#87ceeb" height="67" stroke="#87ceeb" stroke-width="1" width="192" x="286" y="15"/>
<rect fill="none" height="67" stroke="#000000" stroke-width="1" width="192" x="286" y="15"/>
<text font-family="Dialog" font-size="12" x="348" y="28">
Phenotype</text>
<rect fill="#000000" height="1" stroke="#000000" stroke-width="1" width="192" x="286" y="38"/>
<rect fill="#000000" height="1" stroke="#000000" stroke-width="1" width="192" x="286" y="59"/>
<polyline fill="none" points="382,81 382,143" stroke="#000000" stroke-width="1"/>
<polygon fill="#ffffff" points="382,81 387,91 382,101 377,91" stroke="#ffffff" stroke-width="1"/>
<polygon fill="none" points="382,81 387,91 382,101 377,91" stroke="#000000" stroke-width="1"/>
<line fill="#000000" stroke="#000000" stroke-width="1" x1="375" x2="382" y1="131" y2="143"/>
<line fill="#000000" stroke="#000000" stroke-width="1" x1="389" x2="382" y1="131" y2="143"/>
<text font-family="Dialog" font-size="12" x="395" y="126">
1</text>
<rect fill="#87ceeb" height="67" stroke="#87ceeb" stroke-width="1" width="192" x="14" y="15"/>
<rect fill="none" height="67" stroke="#000000" stroke-width="1" width="192" x="14" y="15"/>
<text font-family="Dialog" font-size="12" x="76" y="28">
Population</text>
<rect fill="#000000" height="1" stroke="#000000" stroke-width="1" width="192" x="14" y="38"/>
<rect fill="#000000" height="1" stroke="#000000" stroke-width="1" width="192" x="14" y="59"/>
<polyline fill="none" points="205,47 286,47" stroke="#000000" stroke-width="1"/>
<polygon fill="#ffffff" points="205,47 215,42 225,47 215,52" stroke="#ffffff" stroke-width="1"/>
<polygon fill="none" points="205,47 215,42 225,47 215,52" stroke="#000000" stroke-width="1"/>
<line fill="#000000" stroke="#000000" stroke-width="1" x1="274" x2="286" y1="54" y2="47"/>
<line fill="#000000" stroke="#000000" stroke-width="1" x1="274" x2="286" y1="40" y2="47"/>
<text font-family="Dialog" font-size="12" x="260" y="42">
1..*</text>
<rect fill="#87ceeb" height="67" stroke="#87ceeb" stroke-width="1" width="192" x="14" y="143"/>
<rect fill="none" height="67" stroke="#000000" stroke-width="1" width="192" x="14" y="143"/>
<text font-family="Dialog" font-size="12" x="55" y="175">
(Fitness)Function</text>
<text font-family="Dialog" font-size="12" x="62" y="157">
&lt;&lt;interface&gt;&gt;</text>
<rect fill="#000000" height="1" stroke="#000000" stroke-width="1" width="192" x="14" y="185"/>
<text font-family="Dialog" font-size="12" x="18" y="199">
apply(genotype : Genotype)</text>
<polyline fill="none" points="286,81 205,143" stroke="#000000" stroke-width="1"/>
<line fill="#000000" stroke="#000000" stroke-width="1" x1="210" x2="205" y1="130" y2="143"/>
<line fill="#000000" stroke="#000000" stroke-width="1" x1="218" x2="205" y1="141" y2="143"/>
<text font-family="Dialog" font-size="12" x="207" y="121">
1</text>
</svg>
