<?xml version="1.0" encoding="utf-8" ?>
<!DOCTYPE svg PUBLIC "-//W3C//DTD SVG 1.1//EN" "http://www.w3.org/Graphics/SVG/1.1/DTD/svg11.dtd">
<svg height="484" version="1.1" width="492" xmlns="http://www.w3.org/2000/svg">
<rect fill="#87ceeb" height="67" stroke="#87ceeb" stroke-width="1" width="192" x="14" y="398"/>
<rect fill="none" height="67" stroke="#000000" stroke-width="1" width="192" x="14" y="398"/>
<text font-family="Dialog" font-size="12" x="93" y="430">
Gene</text>
<text font-family="Dialog" font-size="12" x="62" y="412">
&lt;&lt;interface&gt;&gt;</text>
<rect fill="#000000" height="1" stroke="#000000" stroke-width="1" width="192" x="14" y="440"/>
<text font-family="Dialog" font-size="12" x="18" y="454">
getAllele()</text>
<rect fill="#87ceeb" height="67" stroke="#87ceeb" stroke-width="1" width="192" x="286" y="398"/>
<rect fill="none" height="67" stroke="#000000" stroke-width="1" width="192" x="286" y="398"/>
<text font-family="Dialog" font-size="12" x="341" y="430">
Chromosome</text>
<text font-family="Dialog" font-size="12" x="334" y="412">
&lt;&lt;interface&gt;&gt;</text>
<rect fill="#000000" height="1" stroke="#000000" stroke-width="1" width="192" x="286" y="440"/>
<polyline fill="none" points="286,430 205,430" stroke="#000000" stroke-width="1"/>
<polygon fill="#ffffff" points="286,430 276,435 266,430 276,425" stroke="#ffffff" stroke-width="1"/>
<polygon fill="none" points="286,430 276,435 266,430 276,425" stroke="#000000" stroke-width="1"/>
<line fill="#000000" stroke="#000000" stroke-width="1" x1="217" x2="205" y1="423" y2="430"/>
<line fill="#000000" stroke="#000000" stroke-width="1" x1="217" x2="205" y1="437" y2="430"/>
<text font-family="Dialog" font-size="12" x="215" y="420">
1..*</text>
<rect fill="#87ceeb" height="69" stroke="#87ceeb" stroke-width="1" width="192" x="286" y="270"/>
<rect fill="none" height="69" stroke="#000000" stroke-width="1" width="192" x="286" y="270"/>
<text font-family="Dialog" font-size="12" x="352" y="283">
Genotype</text>
<rect fill="#000000" height="1" stroke="#000000" stroke-width="1" width="192" x="286" y="293"/>
<rect fill="#000000" height="1" stroke="#000000" stroke-width="1" width="192" x="286" y="315"/>
<polyline fill="none" points="382,338 382,398" stroke="#000000" stroke-width="1"/>
<polygon fill="#ffffff" points="382,338 387,348 382,358 377,348" stroke="#ffffff" stroke-width="1"/>
<polygon fill="none" points="382,338 387,348 382,358 377,348" stroke="#000000" stroke-width="1"/>
<line fill="#000000" stroke="#000000" stroke-width="1" x1="375" x2="382" y1="386" y2="398"/>
<line fill="#000000" stroke="#000000" stroke-width="1" x1="389" x2="382" y1="386" y2="398"/>
<text font-family="Dialog" font-size="12" x="388" y="381">
1..*</text>
<rect fill="#87ceeb" height="67" stroke="#87ceeb" stroke-width="1" width="192" x="286" y="142"/>
<rect fill="none" height="67" stroke="#000000" stroke-width="1" width="192" x="286" y="142"/>
<text font-family="Dialog" font-size="12" x="348" y="155">
Phenotype</text>
<rect fill="#000000" height="1" stroke="#000000" stroke-width="1" width="192" x="286" y="165"/>
<rect fill="#000000" height="1" stroke="#000000" stroke-width="1" width="192" x="286" y="186"/>
<polyline fill="none" points="382,208 382,270" stroke="#000000" stroke-width="1"/>
<polygon fill="#ffffff" points="382,208 387,218 382,228 377,218" stroke="#ffffff" stroke-width="1"/>
<polygon fill="none" points="382,208 387,218 382,228 377,218" stroke="#000000" stroke-width="1"/>
<line fill="#000000" stroke="#000000" stroke-width="1" x1="375" x2="382" y1="258" y2="270"/>
<line fill="#000000" stroke="#000000" stroke-width="1" x1="389" x2="382" y1="258" y2="270"/>
<text font-family="Dialog" font-size="12" x="395" y="253">
1</text>
<rect fill="#87ceeb" height="67" stroke="#87ceeb" stroke-width="1" width="192" x="286" y="14"/>
<rect fill="none" height="67" stroke="#000000" stroke-width="1" width="192" x="286" y="14"/>
<text font-family="Dialog" font-size="12" x="348" y="27">
Population</text>
<rect fill="#000000" height="1" stroke="#000000" stroke-width="1" width="192" x="286" y="37"/>
<rect fill="#000000" height="1" stroke="#000000" stroke-width="1" width="192" x="286" y="58"/>
<polyline fill="none" points="382,80 382,142" stroke="#000000" stroke-width="1"/>
<polygon fill="#ffffff" points="382,80 387,90 382,100 377,90" stroke="#ffffff" stroke-width="1"/>
<polygon fill="none" points="382,80 387,90 382,100 377,90" stroke="#000000" stroke-width="1"/>
<line fill="#000000" stroke="#000000" stroke-width="1" x1="375" x2="382" y1="130" y2="142"/>
<line fill="#000000" stroke="#000000" stroke-width="1" x1="389" x2="382" y1="130" y2="142"/>
<text font-family="Dialog" font-size="12" x="388" y="125">
1..*</text>
<rect fill="#87ceeb" height="67" stroke="#87ceeb" stroke-width="1" width="192" x="14" y="142"/>
<rect fill="none" height="67" stroke="#000000" stroke-width="1" width="192" x="14" y="142"/>
<text font-family="Dialog" font-size="12" x="55" y="174">
(Fitness)Function</text>
<text font-family="Dialog" font-size="12" x="62" y="156">
&lt;&lt;interface&gt;&gt;</text>
<rect fill="#000000" height="1" stroke="#000000" stroke-width="1" width="192" x="14" y="184"/>
<text font-family="Dialog" font-size="12" x="18" y="198">
apply(genotype : Genotype)</text>
<polyline fill="none" points="286,174 205,174" stroke="#000000" stroke-width="1"/>
<line fill="#000000" stroke="#000000" stroke-width="1" x1="217" x2="205" y1="167" y2="174"/>
<line fill="#000000" stroke="#000000" stroke-width="1" x1="217" x2="205" y1="181" y2="174"/>
<text font-family="Dialog" font-size="12" x="221" y="164">
1</text>
</svg>
