<?xml version="1.0" encoding="UTF-8" standalone="no"?>
<!-- Created with Inkscape (http://www.inkscape.org/) -->

<svg
   xmlns:dc="http://purl.org/dc/elements/1.1/"
   xmlns:cc="http://creativecommons.org/ns#"
   xmlns:rdf="http://www.w3.org/1999/02/22-rdf-syntax-ns#"
   xmlns:svg="http://www.w3.org/2000/svg"
   xmlns="http://www.w3.org/2000/svg"
   xmlns:xlink="http://www.w3.org/1999/xlink"
   xmlns:sodipodi="http://sodipodi.sourceforge.net/DTD/sodipodi-0.dtd"
   xmlns:inkscape="http://www.inkscape.org/namespaces/inkscape"
   width="744.09448819"
   height="1052.3622047"
   id="svg3493"
   version="1.1"
   inkscape:version="0.48.2 r9819"
   sodipodi:docname="title.svg">
  <defs
     id="defs3495">
    <linearGradient
       y2="32.551796"
       x2="234.00018"
       y1="60.838039"
       x1="234.00018"
       id="imagebot_159"
       xlink:href="#imagebot_178"
       gradientTransform="scale(0.36647502,2.728699)"
       gradientUnits="userSpaceOnUse" />
    <linearGradient
       id="imagebot_178">
      <stop
         stop-color="black"
         id="imagebot_185"
         offset="0" />
      <stop
         stop-color="black"
         stop-opacity="0"
         id="imagebot_184"
         offset="1" />
    </linearGradient>
    <linearGradient
       y2="29.153082"
       x2="205.51187"
       y1="57.226727"
       x1="205.51187"
       id="imagebot_156"
       xlink:href="#imagebot_176"
       gradientTransform="scale(0.36983164,2.7039331)"
       gradientUnits="userSpaceOnUse" />
    <linearGradient
       id="imagebot_176">
      <stop
         stop-color="black"
         id="imagebot_187"
         offset="0" />
      <stop
         stop-color="black"
         stop-opacity="0"
         id="imagebot_186"
         offset="1" />
    </linearGradient>
  </defs>
  <sodipodi:namedview
     id="base"
     pagecolor="#ffffff"
     bordercolor="#666666"
     borderopacity="1.0"
     inkscape:pageopacity="0.0"
     inkscape:pageshadow="2"
     inkscape:zoom="0.71"
     inkscape:cx="380.75385"
     inkscape:cy="520"
     inkscape:document-units="px"
     inkscape:current-layer="imagebot_3"
     showgrid="false"
     inkscape:window-width="1290"
     inkscape:window-height="982"
     inkscape:window-x="180"
     inkscape:window-y="70"
     inkscape:window-maximized="0" />
  <metadata
     id="metadata3498">
    <rdf:RDF>
      <cc:Work
         rdf:about="">
        <dc:format>image/svg+xml</dc:format>
        <dc:type
           rdf:resource="http://purl.org/dc/dcmitype/StillImage" />
        <dc:title></dc:title>
      </cc:Work>
    </rdf:RDF>
  </metadata>
  <g
     inkscape:label="Layer 1"
     inkscape:groupmode="layer"
     id="layer1">
    <g
       id="imagebot_2"
       label="DNA"
       transform="matrix(7.4270882,0,0,8.516236,48.693776,-824.53045)">
      <g
         label="DNA"
         id="imagebot_3"
         transform="matrix(0,-0.371425,0.952949,0,-74.2612,247.2507)"
         style="opacity:0.70999995;stroke-opacity:0">
        <path
           stroke-miterlimit="4"
           id="imagebot_164"
           d="m 285.22384,167.74016 c 1.86497,3.46314 3.71591,5.35509 5.58086,5.35808 3.09465,0.005 6.2068,-5.21228 9.30145,-14.16309 3.09463,-8.95079 6.18059,-21.5329 9.27523,-34.19621 3.09464,-12.66333 6.18059,-25.238381 9.27524,-34.196214 1.22675,-3.550978 2.44142,-6.523725 3.66816,-8.805012 -1.86494,-3.465565 -3.71591,-5.39522 -5.58086,-5.392217 -3.09463,0.0049 -6.2068,5.239389 -9.30143,14.197229 -3.09464,8.957833 -6.1806,21.532884 -9.27524,34.196214 -3.09464,12.66331 -6.1806,25.2454 -9.27523,34.19621 -1.22676,3.54819 -2.44143,6.52214 -3.66818,8.80501 z"
           inkscape:connector-curvature="0"
           style="opacity:0.80000000000000004;fill:#001496;fill-rule:nonzero;stroke:#000000;stroke-width:3.94456266999999983;stroke-linecap:round;stroke-linejoin:bevel;stroke-miterlimit:4;stroke-dasharray:14.34386459000000080, 14.34386459000000080;stroke-dashoffset:0;marker-start:none;marker-mid:none;marker-end:none;fill-opacity:1" />
        <path
           stroke-miterlimit="4"
           id="imagebot_162"
           d="m 210.32253,167.74016 c 1.86494,3.46314 3.71592,5.35509 5.58086,5.35808 3.09464,0.005 6.20682,-5.21228 9.30144,-14.16309 3.09464,-8.95079 6.18059,-21.5329 9.27524,-34.19621 3.09461,-12.66333 6.18061,-25.238381 9.27523,-34.196214 1.22675,-3.550978 2.44143,-6.523725 3.66817,-8.805012 -1.86494,-3.465565 -3.71592,-5.39522 -5.58086,-5.392217 -3.09462,0.0049 -6.20682,5.239389 -9.30144,14.197229 -3.09462,8.957833 -6.18062,21.532884 -9.27523,34.196214 -3.09463,12.66331 -6.18059,25.2454 -9.27524,34.19621 -1.22674,3.54819 -2.44142,6.52214 -3.66817,8.80501 z"
           inkscape:connector-curvature="0"
           style="opacity:0.80000000000000004;fill:#001496;fill-rule:nonzero;stroke:#000000;stroke-width:3.94456266999999983;stroke-linecap:round;stroke-linejoin:bevel;stroke-miterlimit:4;stroke-dasharray:14.34386459000000080, 14.34386459000000080;stroke-dashoffset:0;marker-start:none;marker-mid:none;marker-end:none;fill-opacity:1" />
        <path
           stroke-miterlimit="4"
           d="m 135.3693,167.74016 c 1.86496,3.46314 3.71591,5.35509 5.58087,5.35808 3.09462,0.005 6.2068,-5.21228 9.30144,-14.16309 3.09464,-8.95079 6.18058,-21.5329 9.27523,-34.19621 3.09463,-12.66333 6.1806,-25.238381 9.27524,-34.196214 1.22674,-3.550978 2.44142,-6.523725 3.66817,-8.805012 -1.86495,-3.465565 -3.71591,-5.39522 -5.58086,-5.392217 -3.09464,0.0049 -6.20681,5.239389 -9.30144,14.197229 -3.09463,8.957833 -6.18061,21.532884 -9.27523,34.196214 -3.09464,12.66331 -6.1806,25.2454 -9.27525,34.19621 -1.22674,3.54819 -2.44143,6.52214 -3.66817,8.80501 z"
           id="imagebot_160"
           inkscape:connector-curvature="0"
           style="opacity:0.80000000000000004;fill:#001496;fill-rule:nonzero;stroke:#000000;stroke-width:3.94456266999999983;stroke-linecap:round;stroke-linejoin:bevel;stroke-miterlimit:4;stroke-dasharray:14.34386459000000080, 14.34386459000000080;stroke-dashoffset:0;marker-start:none;marker-mid:none;marker-end:none;fill-opacity:1" />
        <path
           stroke-miterlimit="4"
           id="imagebot_150"
           d="m 108.64799,167.74016 c 1.86496,3.46314 3.71592,5.35509 5.58087,5.35808 3.09463,0.005 6.2068,-5.21228 9.30144,-14.16309 3.09463,-8.95079 6.18059,-21.5329 9.27523,-34.19621 3.09463,-12.66333 6.1806,-25.238381 9.27524,-34.196214 1.22675,-3.550978 2.44143,-6.523725 3.66817,-8.805012 -1.86495,-3.465565 -3.71591,-5.39522 -5.58087,-5.392217 -3.09462,0.0049 -6.20681,5.239389 -9.30143,14.197229 -3.09464,8.957833 -6.18061,21.532884 -9.27524,34.196214 -3.09463,12.66331 -6.1806,25.2454 -9.27523,34.19621 -1.22674,3.54819 -2.44143,6.52214 -3.66818,8.80501 z"
           inkscape:connector-curvature="0"
           style="opacity:0.80000000000000004;fill:#001496;fill-rule:nonzero;stroke:#000000;stroke-width:3.94456266999999983;stroke-linecap:round;stroke-linejoin:bevel;stroke-miterlimit:4;stroke-dasharray:14.34386459000000080, 14.34386459000000080;stroke-dashoffset:0;marker-start:none;marker-mid:none;marker-end:none;fill-opacity:1" />
        <path
           stroke-miterlimit="4"
           id="imagebot_148"
           d="m 183.60119,167.74016 c 1.86494,3.46314 3.71592,5.35509 5.58086,5.35808 3.09462,0.005 6.20682,-5.21228 9.30143,-14.16309 3.09465,-8.95079 6.1806,-21.5329 9.27524,-34.19621 3.09462,-12.66333 6.18062,-25.238381 9.27524,-34.196214 1.22674,-3.550978 2.44142,-6.523725 3.66817,-8.805012 -1.86494,-3.465565 -3.71592,-5.39522 -5.58086,-5.392217 -3.09463,0.0049 -6.20682,5.239389 -9.30144,14.197229 -3.09462,8.957833 -6.18062,21.532884 -9.27524,34.196214 -3.09462,12.66331 -6.18058,25.2454 -9.27524,34.19621 -1.22674,3.54819 -2.44142,6.52214 -3.66816,8.80501 z"
           inkscape:connector-curvature="0"
           style="opacity:0.80000000000000004;fill:#001496;fill-rule:nonzero;stroke:#000000;stroke-width:3.94456266999999983;stroke-linecap:round;stroke-linejoin:bevel;stroke-miterlimit:4;stroke-dasharray:14.34386459000000080, 14.34386459000000080;stroke-dashoffset:0;marker-start:none;marker-mid:none;marker-end:none;fill-opacity:1" />
        <rect
           stroke-miterlimit="4"
           rx="2.3885"
           ry="1.2285634"
           y="80.545616"
           x="220.06204"
           height="67.196228"
           width="4.0052252"
           id="imagebot_146"
           style="opacity:0.8;fill:#aad4ff;fill-rule:evenodd;stroke:#000000;stroke-width:3.94456267;stroke-linecap:round;stroke-linejoin:bevel;stroke-miterlimit:4;stroke-dasharray:14.34386459, 14.34386459;stroke-dashoffset:0" />
        <rect
           stroke-miterlimit="4"
           id="imagebot_144"
           width="4.395678"
           height="30.155209"
           x="228.30885"
           y="91.086838"
           ry="1.3483336"
           rx="2.62135"
           style="opacity:0.8;fill:#aad4ff;fill-rule:evenodd;stroke:#000000;stroke-width:3.94456267;stroke-linecap:round;stroke-linejoin:bevel;stroke-miterlimit:4;stroke-dasharray:14.34386459, 14.34386459;stroke-dashoffset:0" />
        <rect
           stroke-miterlimit="4"
           rx="2.56457"
           ry="1.319128"
           y="87.393883"
           x="236.94611"
           height="37.541122"
           width="4.3004732"
           id="imagebot_142"
           style="opacity:0.8;fill:#aad4ff;fill-rule:evenodd;stroke:#000000;stroke-width:3.94456267;stroke-linecap:round;stroke-linejoin:bevel;stroke-miterlimit:4;stroke-dasharray:14.34386459, 14.34386459;stroke-dashoffset:0" />
        <rect
           stroke-miterlimit="4"
           id="imagebot_140"
           width="3.9389381"
           height="75.419754"
           x="245.48816"
           y="81.058151"
           ry="1.2082305"
           rx="2.3489699"
           style="opacity:0.8;fill:#aad4ff;fill-rule:evenodd;stroke:#000000;stroke-width:3.94456267;stroke-linecap:round;stroke-linejoin:bevel;stroke-miterlimit:4;stroke-dasharray:14.34386459, 14.34386459;stroke-dashoffset:0" />
        <rect
           stroke-miterlimit="4"
           rx="2.3425601"
           ry="1.2049336"
           y="91.974174"
           x="253.66867"
           height="76.813858"
           width="3.9281812"
           id="imagebot_138"
           style="opacity:0.8;fill:#aad4ff;fill-rule:evenodd;stroke:#000000;stroke-width:3.94456267;stroke-linecap:round;stroke-linejoin:bevel;stroke-miterlimit:4;stroke-dasharray:14.34386459, 14.34386459;stroke-dashoffset:0" />
        <path
           stroke-miterlimit="4"
           id="imagebot_136"
           d="m 220.70213,81.737714 c 1.28622,2.340173 2.46469,5.248311 3.69437,8.805012 3.09463,8.950803 6.18062,21.532894 9.27524,34.196214 3.09462,12.66331 6.20682,25.23837 9.30144,34.19621 3.09464,8.95782 6.18059,14.15813 9.27524,14.16309 0.93443,0.001 9.34332,-0.0319 11.22203,-0.0319 -1.85856,0 -4.55408,-3.52308 -5.61497,-5.36032 -1.04439,-1.80865 -2.44355,-5.22607 -3.66817,-8.77088 -3.09464,-8.95782 -6.20682,-21.5329 -9.30144,-34.19621 -3.09464,-12.66333 -6.1806,-25.245411 -9.27524,-34.196213 -3.09462,-8.950807 -6.1806,-14.202199 -9.27523,-14.197229 -0.95846,0.0015 -8.41105,-0.0055 -11.17885,0.01664 2.77698,-0.02709 4.25278,3.023431 5.54558,5.375574 z"
           inkscape:connector-curvature="0"
           style="opacity:0.80000000000000004;fill:#0069c2;fill-rule:nonzero;stroke:#000000;stroke-width:3.94456266999999983;stroke-linecap:round;stroke-linejoin:bevel;stroke-miterlimit:4;stroke-dasharray:14.34386459000000080, 14.34386459000000080;stroke-dashoffset:0;marker-start:none;marker-mid:none;marker-end:none;fill-opacity:1" />
        <path
           stroke-miterlimit="4"
           id="imagebot_134"
           d="m 258.50252,167.74016 c 1.86497,3.46314 3.71592,5.35509 5.58087,5.35808 3.09464,0.005 6.2068,-5.21228 9.30144,-14.16309 3.09463,-8.95079 6.1806,-21.5329 9.27523,-34.19621 3.09465,-12.66333 6.1806,-25.238381 9.27524,-34.196214 1.22674,-3.550978 2.44142,-6.523725 3.66817,-8.805012 -1.86495,-3.465565 -3.71592,-5.39522 -5.58086,-5.392217 -3.09464,0.0049 -6.2068,5.239389 -9.30144,14.197229 -3.09464,8.957833 -6.18059,21.532884 -9.27524,34.196214 -3.09463,12.66331 -6.1806,25.2454 -9.27523,34.19621 -1.22676,3.54819 -2.44143,6.52214 -3.66818,8.80501 z"
           inkscape:connector-curvature="0"
           style="opacity:0.80000000000000004;fill:#001496;fill-rule:nonzero;stroke:#000000;stroke-width:3.94456266999999983;stroke-linecap:round;stroke-linejoin:bevel;stroke-miterlimit:4;stroke-dasharray:14.34386459000000080, 14.34386459000000080;stroke-dashoffset:0;marker-start:none;marker-mid:none;marker-end:none;fill-opacity:1" />
        <rect
           stroke-miterlimit="4"
           rx="2.3885"
           ry="1.2285634"
           y="80.545616"
           x="295.41077"
           height="67.196228"
           width="4.0052252"
           id="imagebot_132"
           style="opacity:0.8;fill:#aad4ff;fill-rule:evenodd;stroke:#000000;stroke-width:3.94456267;stroke-linecap:round;stroke-linejoin:bevel;stroke-miterlimit:4;stroke-dasharray:14.34386459, 14.34386459;stroke-dashoffset:0" />
        <rect
           stroke-miterlimit="4"
           id="imagebot_130"
           width="4.395678"
           height="30.155209"
           x="303.65753"
           y="91.086838"
           ry="1.3483336"
           rx="2.62135"
           style="opacity:0.8;fill:#aad4ff;fill-rule:evenodd;stroke:#000000;stroke-width:3.94456267;stroke-linecap:round;stroke-linejoin:bevel;stroke-miterlimit:4;stroke-dasharray:14.34386459, 14.34386459;stroke-dashoffset:0" />
        <rect
           stroke-miterlimit="4"
           id="imagebot_128"
           width="3.9389381"
           height="75.419754"
           x="320.83688"
           y="81.058151"
           ry="1.2082305"
           rx="2.3489699"
           style="opacity:0.8;fill:#aad4ff;fill-rule:evenodd;stroke:#000000;stroke-width:3.94456267;stroke-linecap:round;stroke-linejoin:bevel;stroke-miterlimit:4;stroke-dasharray:14.34386459, 14.34386459;stroke-dashoffset:0" />
        <rect
           stroke-miterlimit="4"
           rx="2.56457"
           ry="1.319128"
           y="87.393883"
           x="312.29477"
           height="37.541122"
           width="4.3004732"
           id="imagebot_126"
           style="opacity:0.8;fill:#aad4ff;fill-rule:evenodd;stroke:#000000;stroke-width:3.94456267;stroke-linecap:round;stroke-linejoin:bevel;stroke-miterlimit:4;stroke-dasharray:14.34386459, 14.34386459;stroke-dashoffset:0" />
        <rect
           stroke-miterlimit="4"
           rx="2.3425601"
           ry="1.2049336"
           y="91.974174"
           x="329.01733"
           height="76.813858"
           width="3.9281812"
           id="imagebot_124"
           style="opacity:0.8;fill:#aad4ff;fill-rule:evenodd;stroke:#000000;stroke-width:3.94456267;stroke-linecap:round;stroke-linejoin:bevel;stroke-miterlimit:4;stroke-dasharray:14.34386459, 14.34386459;stroke-dashoffset:0" />
        <path
           stroke-miterlimit="4"
           id="imagebot_122"
           d="m 295.65529,81.737714 c 1.28623,2.340173 2.46468,5.248311 3.69437,8.805012 3.09463,8.950803 6.1806,21.532894 9.27524,34.196214 3.09463,12.66331 6.20679,25.23837 9.30144,34.19621 3.09462,8.95782 6.18059,14.15813 9.27523,14.16309 0.93444,0.001 9.34332,-0.0319 11.22204,-0.0319 -1.85855,0 -4.55408,-3.52308 -5.61498,-5.36032 -1.04438,-1.80865 -2.44354,-5.22607 -3.66816,-8.77088 -3.09465,-8.95782 -6.20681,-21.5329 -9.30145,-34.19621 -3.09463,-12.66333 -6.18057,-25.245411 -9.27523,-34.196213 -3.09464,-8.950807 -6.18061,-14.202199 -9.27524,-14.197229 -0.95844,0.0015 -8.41103,-0.0055 -11.17884,0.01664 2.77697,-0.02709 4.25279,3.023431 5.54558,5.375574 z"
           inkscape:connector-curvature="0"
           style="opacity:0.80000000000000004;fill:#0069c2;fill-rule:nonzero;stroke:#000000;stroke-width:3.94456266999999983;stroke-linecap:round;stroke-linejoin:bevel;stroke-miterlimit:4;stroke-dasharray:14.34386459000000080, 14.34386459000000080;stroke-dashoffset:0;marker-start:none;marker-mid:none;marker-end:none;fill-opacity:1" />
        <rect
           stroke-miterlimit="4"
           rx="2.6340401"
           ry="1.3548611"
           y="130.965"
           x="120.57577"
           height="28.636017"
           width="4.4169579"
           id="imagebot_76"
           style="opacity:0.8;fill:#aad4ff;fill-rule:evenodd;stroke:#000000;stroke-width:3.94456267;stroke-linecap:round;stroke-linejoin:bevel;stroke-miterlimit:4;stroke-dasharray:14.34386459, 14.34386459;stroke-dashoffset:0" />
        <rect
           stroke-miterlimit="4"
           rx="2.4245"
           ry="1.2470806"
           y="107.26038"
           x="128.28937"
           height="60.234322"
           width="4.0655928"
           id="imagebot_74"
           style="opacity:0.8;fill:#aad4ff;fill-rule:evenodd;stroke:#000000;stroke-width:3.94456267;stroke-linecap:round;stroke-linejoin:bevel;stroke-miterlimit:4;stroke-dasharray:14.34386459, 14.34386459;stroke-dashoffset:0" />
        <rect
           stroke-miterlimit="4"
           id="imagebot_70"
           width="3.9389381"
           height="75.419754"
           x="170.13948"
           y="81.058151"
           ry="1.2082305"
           rx="2.3489699"
           style="opacity:0.8;fill:#aad4ff;fill-rule:evenodd;stroke:#000000;stroke-width:3.94456267;stroke-linecap:round;stroke-linejoin:bevel;stroke-miterlimit:4;stroke-dasharray:14.34386459, 14.34386459;stroke-dashoffset:0" />
        <rect
           stroke-miterlimit="4"
           rx="2.3425601"
           ry="1.2049336"
           y="91.974174"
           x="178.32002"
           height="76.813858"
           width="3.9281812"
           id="imagebot_68"
           style="opacity:0.8;fill:#aad4ff;fill-rule:evenodd;stroke:#000000;stroke-width:3.94456267;stroke-linecap:round;stroke-linejoin:bevel;stroke-miterlimit:4;stroke-dasharray:14.34386459, 14.34386459;stroke-dashoffset:0" />
        <rect
           stroke-miterlimit="4"
           id="imagebot_66"
           width="4.2481294"
           height="42.02784"
           x="186.48978"
           y="122.74422"
           ry="1.3030694"
           rx="2.53335"
           style="opacity:0.8;fill:#aad4ff;fill-rule:evenodd;stroke:#000000;stroke-width:3.94456267;stroke-linecap:round;stroke-linejoin:bevel;stroke-miterlimit:4;stroke-dasharray:14.34386459, 14.34386459;stroke-dashoffset:0" />
        <rect
           stroke-miterlimit="4"
           rx="2.6340401"
           ry="1.3548611"
           y="130.965"
           x="194.97949"
           height="28.636017"
           width="4.4169579"
           id="imagebot_64"
           style="opacity:0.8;fill:#aad4ff;fill-rule:evenodd;stroke:#000000;stroke-width:3.94456267;stroke-linecap:round;stroke-linejoin:bevel;stroke-miterlimit:4;stroke-dasharray:14.34386459, 14.34386459;stroke-dashoffset:0" />
        <rect
           stroke-miterlimit="4"
           rx="2.4245"
           ry="1.2470806"
           y="107.26038"
           x="203.63805"
           height="60.234322"
           width="4.0655928"
           id="imagebot_62"
           style="opacity:0.8;fill:#aad4ff;fill-rule:evenodd;stroke:#000000;stroke-width:3.94456267;stroke-linecap:round;stroke-linejoin:bevel;stroke-miterlimit:4;stroke-dasharray:14.34386459, 14.34386459;stroke-dashoffset:0" />
        <rect
           stroke-miterlimit="4"
           id="imagebot_60"
           width="3.8752334"
           height="83.924248"
           x="211.94525"
           y="83.446495"
           ry="1.1886898"
           rx="2.3109801"
           style="opacity:0.8;fill:#aad4ff;fill-rule:evenodd;stroke:#000000;stroke-width:3.94456267;stroke-linecap:round;stroke-linejoin:bevel;stroke-miterlimit:4;stroke-dasharray:14.34386459, 14.34386459;stroke-dashoffset:0" />
        <path
           stroke-miterlimit="4"
           d="m 172.47025,81.737714 c 1.28621,2.340173 2.46469,5.248311 3.69438,8.805012 3.09462,8.950803 6.1806,21.532894 9.27523,34.196214 3.09463,12.66331 6.2068,25.23837 9.30144,34.19621 3.09464,8.95782 6.1806,14.15813 9.27524,14.16309 0.93442,0.001 9.34332,-0.0319 11.22202,-0.0319 -1.85855,0 -4.55408,-3.52308 -5.61496,-5.36032 -1.04439,-1.80865 -2.44356,-5.22607 -3.66817,-8.77088 -3.09464,-8.95782 -6.20682,-21.5329 -9.30144,-34.19621 -3.09465,-12.66333 -6.1806,-25.245411 -9.27523,-34.196213 -3.09464,-8.950807 -6.1806,-14.202199 -9.27524,-14.197229 -0.95846,0.0015 -8.41105,-0.0055 -11.17885,0.01664 2.77698,-0.02709 4.25278,3.023431 5.54558,5.375574 z"
           id="imagebot_58"
           inkscape:connector-curvature="0"
           style="opacity:0.80000000000000004;fill:#0069c2;fill-rule:nonzero;stroke:#000000;stroke-width:3.94456266999999983;stroke-linecap:round;stroke-linejoin:bevel;stroke-miterlimit:4;stroke-dasharray:14.34386459000000080, 14.34386459000000080;stroke-dashoffset:0;marker-start:none;marker-mid:none;marker-end:none;fill-opacity:1" />
        <rect
           stroke-miterlimit="4"
           id="imagebot_56"
           width="4.2481294"
           height="42.02784"
           x="261.83844"
           y="122.74422"
           ry="1.3030694"
           rx="2.53335"
           style="opacity:0.8;fill:#aad4ff;fill-rule:evenodd;stroke:#000000;stroke-width:3.94456267;stroke-linecap:round;stroke-linejoin:bevel;stroke-miterlimit:4;stroke-dasharray:14.34386459, 14.34386459;stroke-dashoffset:0" />
        <rect
           stroke-miterlimit="4"
           rx="2.6340401"
           ry="1.3548611"
           y="130.965"
           x="270.32816"
           height="28.636017"
           width="4.4169579"
           id="imagebot_54"
           style="opacity:0.8;fill:#aad4ff;fill-rule:evenodd;stroke:#000000;stroke-width:3.94456267;stroke-linecap:round;stroke-linejoin:bevel;stroke-miterlimit:4;stroke-dasharray:14.34386459, 14.34386459;stroke-dashoffset:0" />
        <rect
           stroke-miterlimit="4"
           rx="2.4245"
           ry="1.2470806"
           y="107.26038"
           x="278.98669"
           height="60.234322"
           width="4.0655928"
           id="imagebot_52"
           style="opacity:0.8;fill:#aad4ff;fill-rule:evenodd;stroke:#000000;stroke-width:3.94456267;stroke-linecap:round;stroke-linejoin:bevel;stroke-miterlimit:4;stroke-dasharray:14.34386459, 14.34386459;stroke-dashoffset:0" />
        <rect
           stroke-miterlimit="4"
           id="imagebot_50"
           width="3.8752334"
           height="83.924248"
           x="287.29388"
           y="83.446495"
           ry="1.1886898"
           rx="2.3109801"
           style="opacity:0.8;fill:#aad4ff;fill-rule:evenodd;stroke:#000000;stroke-width:3.94456267;stroke-linecap:round;stroke-linejoin:bevel;stroke-miterlimit:4;stroke-dasharray:14.34386459, 14.34386459;stroke-dashoffset:0" />
        <path
           stroke-miterlimit="4"
           id="imagebot_48"
           d="m 247.42347,81.737714 c 1.28622,2.340173 2.46469,5.248311 3.69437,8.805012 3.09465,8.950803 6.1806,21.532894 9.27524,34.196214 3.09464,12.66331 6.2068,25.23837 9.30144,34.19621 3.09464,8.95782 6.1806,14.15813 9.27524,14.16309 0.93444,0.001 9.34332,-0.0319 11.22203,-0.0319 -1.85858,0 -4.55408,-3.52308 -5.61497,-5.36032 -1.04439,-1.80865 -2.44355,-5.22607 -3.66817,-8.77088 -3.09464,-8.95782 -6.20683,-21.5329 -9.30144,-34.19621 -3.09464,-12.66333 -6.1806,-25.245411 -9.27524,-34.196213 -3.09463,-8.950807 -6.18059,-14.202199 -9.27523,-14.197229 -0.95845,0.0015 -8.41104,-0.0055 -11.17885,0.01664 2.77698,-0.02709 4.25277,3.023431 5.54558,5.375574 z"
           inkscape:connector-curvature="0"
           style="opacity:0.80000000000000004;fill:#0069c2;fill-rule:nonzero;stroke:#000000;stroke-width:3.94456266999999983;stroke-linecap:round;stroke-linejoin:bevel;stroke-miterlimit:4;stroke-dasharray:14.34386459000000080, 14.34386459000000080;stroke-dashoffset:0;marker-start:none;marker-mid:none;marker-end:none;fill-opacity:1" />
        <rect
           stroke-miterlimit="4"
           id="imagebot_46"
           width="4.2481294"
           height="42.02784"
           x="337.1871"
           y="122.74422"
           ry="1.3030694"
           rx="2.53335"
           style="opacity:0.8;fill:#aad4ff;fill-rule:evenodd;stroke:#000000;stroke-width:3.94456267;stroke-linecap:round;stroke-linejoin:bevel;stroke-miterlimit:4;stroke-dasharray:14.34386459, 14.34386459;stroke-dashoffset:0" />
        <rect
           stroke-miterlimit="4"
           rx="2.6340401"
           ry="1.3548611"
           y="130.965"
           x="345.67682"
           height="28.636017"
           width="4.4169579"
           id="imagebot_44"
           style="opacity:0.8;fill:#aad4ff;fill-rule:evenodd;stroke:#000000;stroke-width:3.94456267;stroke-linecap:round;stroke-linejoin:bevel;stroke-miterlimit:4;stroke-dasharray:14.34386459, 14.34386459;stroke-dashoffset:0" />
        <path
           stroke-miterlimit="4"
           id="imagebot_38"
           d="m 322.37661,81.737714 c 1.28623,2.340173 2.46467,5.248311 3.69437,8.805012 3.09463,8.950803 6.18059,21.532894 9.27524,34.196214 3.09462,12.66331 6.2068,25.23837 9.30143,34.19621 3.09463,8.95782 6.1806,14.15813 9.27524,14.16309 0.93444,0.001 9.34332,-0.0319 11.22203,-0.0319 -1.85855,0 -4.55407,-3.52308 -5.61497,-5.36032 -1.04439,-1.80865 -2.44354,-5.22607 -3.66817,-8.77088 -3.09464,-8.95782 -6.20681,-21.5329 -9.30144,-34.19621 -3.09464,-12.66333 -6.18061,-25.245411 -9.27523,-34.196213 -3.09464,-8.950807 -6.18061,-14.202199 -9.27524,-14.197229 -0.95845,0.0015 -8.41103,-0.0055 -11.17885,0.01664 2.77697,-0.02709 4.25279,3.023431 5.54559,5.375574 z"
           inkscape:connector-curvature="0"
           style="opacity:0.80000000000000004;fill:#0069c2;fill-rule:nonzero;stroke:#000000;stroke-width:3.94456266999999983;stroke-linecap:round;stroke-linejoin:bevel;stroke-miterlimit:4;stroke-dasharray:14.34386459000000080, 14.34386459000000080;stroke-dashoffset:0;marker-start:none;marker-mid:none;marker-end:none;fill-opacity:1" />
        <rect
           stroke-miterlimit="4"
           id="imagebot_12"
           width="3.8752334"
           height="83.924248"
           x="136.59654"
           y="83.446495"
           ry="1.1886898"
           rx="2.3109801"
           style="opacity:0.8;fill:#aad4ff;fill-rule:evenodd;stroke:#000000;stroke-width:3.94456267;stroke-linecap:round;stroke-linejoin:bevel;stroke-miterlimit:4;stroke-dasharray:14.34386459, 14.34386459;stroke-dashoffset:0" />
        <rect
           stroke-miterlimit="4"
           rx="2.3885"
           ry="1.2285634"
           y="80.545616"
           x="144.71336"
           height="67.196228"
           width="4.0052252"
           id="imagebot_10"
           style="opacity:0.8;fill:#aad4ff;fill-rule:evenodd;stroke:#000000;stroke-width:3.94456267;stroke-linecap:round;stroke-linejoin:bevel;stroke-miterlimit:4;stroke-dasharray:14.34386459, 14.34386459;stroke-dashoffset:0" />
        <rect
           stroke-miterlimit="4"
           id="imagebot_8"
           width="4.395678"
           height="30.155209"
           x="152.96017"
           y="91.086838"
           ry="1.3483336"
           rx="2.62135"
           style="opacity:0.8;fill:#aad4ff;fill-rule:evenodd;stroke:#000000;stroke-width:3.94456267;stroke-linecap:round;stroke-linejoin:bevel;stroke-miterlimit:4;stroke-dasharray:14.34386459, 14.34386459;stroke-dashoffset:0" />
        <rect
           stroke-miterlimit="4"
           rx="2.56457"
           ry="1.319128"
           y="87.393883"
           x="161.59743"
           height="37.541122"
           width="4.3004732"
           id="imagebot_6"
           style="opacity:0.8;fill:#aad4ff;fill-rule:evenodd;stroke:#000000;stroke-width:3.94456267;stroke-linecap:round;stroke-linejoin:bevel;stroke-miterlimit:4;stroke-dasharray:14.34386459, 14.34386459;stroke-dashoffset:0" />
        <path
           stroke-miterlimit="4"
           id="imagebot_4"
           d="m 145.74894,81.737714 c 1.28623,2.340173 2.46468,5.248311 3.69437,8.805012 3.09464,8.950803 6.18061,21.532894 9.27524,34.196214 3.09464,12.66331 6.2068,25.23837 9.30144,34.19621 3.09463,8.95782 6.18061,14.15813 9.27523,14.16309 0.93443,0.001 9.34332,-0.0319 11.22204,-0.0319 -1.85856,0 -4.55408,-3.52308 -5.61497,-5.36032 -1.04438,-1.80865 -2.44356,-5.22607 -3.66818,-8.77088 -3.09463,-8.95782 -6.20681,-21.5329 -9.30143,-34.19621 -3.09464,-12.66333 -6.18059,-25.245411 -9.27524,-34.196213 -3.09463,-8.950807 -6.1806,-14.202199 -9.27524,-14.197229 -0.95846,0.0015 -8.41104,-0.0055 -11.17884,0.01664 2.77697,-0.02709 4.25279,3.023431 5.54558,5.375574 z"
           inkscape:connector-curvature="0"
           style="opacity:0.80000000000000004;fill:#0069c2;fill-rule:nonzero;stroke:#000000;stroke-width:3.94456266999999983;stroke-linecap:round;stroke-linejoin:bevel;stroke-miterlimit:4;stroke-dasharray:14.34386459000000080, 14.34386459000000080;stroke-dashoffset:0;marker-start:none;marker-mid:none;marker-end:none;fill-opacity:1" />
      </g>
      <title
         id="title3385">Jenetics</title>
    </g>
  </g>
</svg>
